<?xml version="1.0" encoding="UTF-8" standalone="no"?>
<svg
   xmlns:dc="http://purl.org/dc/elements/1.1/"
   xmlns:cc="http://creativecommons.org/ns#"
   xmlns:rdf="http://www.w3.org/1999/02/22-rdf-syntax-ns#"
   xmlns:svg="http://www.w3.org/2000/svg"
   xmlns="http://www.w3.org/2000/svg"
   xmlns:sodipodi="http://sodipodi.sourceforge.net/DTD/sodipodi-0.dtd"
   xmlns:inkscape="http://www.inkscape.org/namespaces/inkscape"
   width="960pt"
   height="482pt"
   viewBox="0 0 960 482"
   version="1.1"
   id="svg2"
   inkscape:version="0.91 r13725"
   sodipodi:docname="logo (cópia).svg">
  <metadata
     id="metadata314">
    <rdf:RDF>
      <cc:Work
         rdf:about="">
        <dc:format>image/svg+xml</dc:format>
        <dc:type
           rdf:resource="http://purl.org/dc/dcmitype/StillImage" />
      </cc:Work>
    </rdf:RDF>
  </metadata>
  <defs
     id="defs312" />
  <sodipodi:namedview
     pagecolor="#ffffff"
     bordercolor="#666666"
     borderopacity="1"
     objecttolerance="10"
     gridtolerance="10"
     guidetolerance="10"
     inkscape:pageopacity="0"
     inkscape:pageshadow="2"
     inkscape:window-width="1855"
     inkscape:window-height="1056"
     id="namedview310"
     showgrid="false"
     inkscape:zoom="0.98"
     inkscape:cx="452.20683"
     inkscape:cy="293.40862"
     inkscape:window-x="65"
     inkscape:window-y="24"
     inkscape:window-maximized="1"
     inkscape:current-layer="svg2" />
  <path
     fill="#fff5f2"
     d=" M 926.81 3.75 C 929.20 1.76 933.85 1.18 935.39 4.44 C 935.67 5.23 936.21 6.82 936.49 7.62 C 943.10 7.60 949.56 4.95 956.17 5.73 C 956.57 6.88 956.98 8.02 957.41 9.16 C 956.90 11.91 954.58 12.79 952.09 13.15 C 950.36 13.37 948.63 13.62 946.93 13.91 C 942.27 15.07 937.55 15.99 932.84 16.89 C 931.30 17.34 929.73 17.68 928.19 18.09 C 925.38 18.63 922.62 19.32 919.83 19.89 C 915.18 20.90 910.58 22.14 905.94 23.14 C 888.59 27.21 871.35 31.72 854.05 36.00 C 852.70 36.41 851.31 36.71 850.00 37.18 C 846.55 37.72 843.23 39.36 839.76 39.38 C 837.96 38.83 836.21 38.13 834.43 37.57 C 859.52 31.10 884.61 24.62 909.81 18.63 C 916.20 16.92 922.70 15.64 929.16 14.18 C 935.76 13.19 942.12 10.49 948.89 10.72 C 949.21 10.57 949.85 10.28 950.17 10.13 C 944.59 9.82 939.14 12.31 933.62 11.13 C 933.21 9.46 932.79 7.80 932.37 6.14 C 931.54 6.28 930.72 6.41 929.91 6.55 C 929.60 7.16 928.98 8.39 928.67 9.00 C 928.66 10.52 928.65 12.04 928.73 13.55 C 927.72 13.52 925.68 13.46 924.66 13.43 C 924.13 11.72 923.64 9.99 923.09 8.29 C 922.13 7.63 921.12 7.49 920.04 7.89 C 918.47 10.44 919.33 14.85 915.49 15.25 C 915.17 13.50 914.88 11.75 914.58 10.00 C 913.24 10.22 911.92 10.45 910.60 10.67 C 910.48 12.83 910.36 15.00 910.24 17.17 C 892.57 19.89 875.51 25.55 857.98 28.93 C 804.11 41.57 750.01 53.37 696.46 67.36 C 655.00 77.59 613.88 89.17 573.09 101.80 C 566.64 103.91 560.19 105.99 553.66 107.81 C 547.11 87.12 539.83 66.37 528.17 47.92 C 526.12 44.47 523.47 41.43 520.78 38.47 C 515.70 32.60 508.83 28.65 501.88 25.39 C 498.29 23.71 494.50 22.50 490.63 21.68 C 483.59 19.76 476.19 20.18 468.99 20.62 C 451.82 23.52 437.18 34.04 424.73 45.69 C 413.87 55.87 404.12 67.13 393.78 77.82 C 387.14 84.29 380.36 90.85 372.05 95.14 C 368.19 97.06 363.95 97.97 359.84 99.16 C 354.17 99.56 348.42 99.61 342.80 98.67 C 337.68 97.91 332.79 96.18 327.72 95.21 C 311.21 89.45 295.48 81.66 278.87 76.19 C 263.82 70.64 248.28 66.25 232.51 63.34 C 223.95 60.56 214.88 60.30 206.05 58.92 C 198.37 58.32 190.66 57.99 182.96 57.69 C 173.00 58.29 162.98 58.24 153.13 60.11 C 152.29 61.86 150.66 61.59 149.36 60.59 C 134.70 63.14 120.44 67.60 106.83 73.61 C 81.18 85.58 58.68 104.11 41.85 126.85 C 28.30 145.30 17.36 166.11 12.69 188.64 C 12.60 189.13 12.54 189.62 12.48 190.11 C 11.90 191.54 11.31 192.98 10.92 194.49 C 7.29 211.74 5.26 229.38 5.59 247.03 C 5.65 258.85 5.50 270.81 7.59 282.48 C 9.82 299.48 12.87 316.42 17.92 332.83 C 22.45 347.30 27.82 361.74 36.28 374.42 C 41.17 382.06 46.21 389.68 52.41 396.33 C 65.77 412.21 82.18 425.36 99.85 436.16 C 129.52 453.98 162.80 465.15 196.73 471.42 C 207.43 473.58 218.30 474.93 229.19 475.60 C 232.12 475.93 235.07 476.37 238.03 476.02 C 231.80 475.15 225.57 474.31 219.36 473.31 C 213.08 471.46 206.57 470.58 200.26 468.83 C 189.23 466.30 178.54 462.55 167.90 458.75 C 140.71 448.60 115.51 433.25 93.93 413.86 C 91.51 411.63 89.19 409.29 86.77 407.07 C 81.07 401.40 75.93 395.20 70.98 388.88 C 72.34 389.21 73.71 389.56 75.09 389.85 C 75.65 389.99 76.77 390.27 77.33 390.41 C 77.53 390.81 77.94 391.60 78.15 392.00 C 97.06 414.91 121.27 433.17 147.90 446.22 C 177.08 460.44 208.82 469.01 241.03 472.59 C 242.22 472.66 243.24 473.33 244.33 473.77 C 244.54 475.40 244.57 477.05 244.50 478.71 C 243.39 479.14 242.35 480.03 241.09 479.85 C 230.35 479.98 219.67 478.43 209.06 476.99 C 172.05 471.64 135.50 460.70 102.88 442.16 C 94.50 437.39 86.43 432.07 78.75 426.26 C 63.59 414.63 49.83 401.00 39.03 385.20 C 26.80 368.32 18.58 348.84 13.13 328.80 C 10.83 320.25 8.54 311.65 7.17 302.89 C 1.65 274.34 0.78 244.96 3.84 216.07 C 5.41 205.35 7.19 194.61 10.12 184.16 C 10.93 180.75 11.98 177.41 13.09 174.09 C 13.69 172.09 14.38 170.12 15.15 168.18 C 21.21 150.88 30.99 135.13 42.07 120.62 C 52.46 107.65 64.32 95.74 78.05 86.31 C 88.01 79.09 98.79 73.04 110.14 68.28 C 111.38 67.75 112.61 67.19 113.86 66.67 C 141.53 56.02 171.61 52.69 201.05 55.06 C 230.45 57.51 259.28 64.99 286.94 75.10 C 303.74 81.32 319.81 89.59 337.24 94.01 C 345.96 95.95 355.26 96.43 363.99 94.33 C 375.82 90.80 384.61 81.61 393.09 73.13 C 408.15 57.84 421.77 40.73 439.90 28.86 C 449.16 22.57 459.77 18.14 470.91 16.72 C 475.62 16.49 480.35 16.54 485.06 16.85 C 491.94 18.25 498.90 19.59 505.20 22.85 C 514.26 27.07 522.19 33.65 528.30 41.54 C 541.07 60.33 549.50 81.76 555.85 103.45 C 567.16 99.82 578.51 96.29 589.89 92.84 C 623.35 82.82 657.05 73.60 690.89 64.93 C 713.58 59.43 736.17 53.56 758.91 48.26 C 769.23 45.70 779.67 43.63 789.94 40.91 C 792.67 40.41 795.38 39.75 798.10 39.13 C 828.85 32.12 859.52 24.74 890.14 17.17 C 893.45 16.41 896.78 15.73 900.12 15.11 C 902.26 14.56 904.43 14.15 906.59 13.63 C 906.89 11.02 907.45 8.21 909.75 6.60 C 911.88 6.31 914.02 6.21 916.14 6.78 C 918.25 4.37 922.83 3.09 925.13 5.85 C 925.55 5.32 926.39 4.27 926.81 3.75 Z"
     id="path6" />
  <path
     fill="#8b1a23"
     d=" M 929.91 6.55 C 930.72 6.41 931.54 6.28 932.37 6.14 C 932.79 7.80 933.21 9.46 933.62 11.13 C 939.14 12.31 944.59 9.82 950.17 10.13 C 949.85 10.28 949.21 10.57 948.89 10.72 C 942.12 10.49 935.76 13.19 929.16 14.18 C 929.05 14.02 928.84 13.71 928.73 13.55 C 928.65 12.04 928.66 10.52 928.67 9.00 C 928.98 8.39 929.60 7.16 929.91 6.55 Z"
     id="path8" />
  <path
     fill="#e69aa2"
     d=" M 920.04 7.89 C 921.12 7.49 922.13 7.63 923.09 8.29 C 922.51 8.68 921.34 9.45 920.75 9.84 C 920.56 11.51 920.38 13.18 920.18 14.84 C 918.77 15.29 917.36 15.73 915.96 16.14 L 915.49 15.25 C 919.33 14.85 918.47 10.44 920.04 7.89 Z"
     id="path10" />
  <path
     fill="#a60a0a"
     d=" M 920.75 9.84 C 921.34 9.45 922.51 8.68 923.09 8.29 C 923.64 9.99 924.13 11.72 924.66 13.43 C 923.14 13.81 921.66 14.34 920.18 14.84 C 920.38 13.18 920.56 11.51 920.75 9.84 Z"
     id="path12" />
  <path
     fill="#b85760"
     d=" M 910.60 10.67 C 911.92 10.45 913.24 10.22 914.58 10.00 C 914.88 11.75 915.17 13.50 915.49 15.25 C 914.70 13.76 913.91 12.29 913.12 10.81 C 913.15 12.12 913.21 13.42 913.27 14.73 C 912.60 15.49 911.93 16.25 911.27 17.00 L 910.24 17.17 C 910.36 15.00 910.48 12.83 910.60 10.67 Z"
     id="path14" />
  <path
     fill="#59100d"
     d=" M 913.12 10.81 C 913.91 12.29 914.70 13.76 915.49 15.25 L 915.96 16.14 C 917.36 15.73 918.77 15.29 920.18 14.84 C 921.66 14.34 923.14 13.81 924.66 13.43 C 925.68 13.46 927.72 13.52 928.73 13.55 C 928.84 13.71 929.05 14.02 929.16 14.18 C 922.70 15.64 916.20 16.92 909.81 18.63 C 910.17 18.22 910.90 17.41 911.27 17.00 C 911.93 16.25 912.60 15.49 913.27 14.73 C 913.21 13.42 913.15 12.12 913.12 10.81 Z"
     id="path16" />
  <path
     fill="#6c3237"
     d=" M 857.98 28.93 C 875.51 25.55 892.57 19.89 910.24 17.17 L 911.27 17.00 C 910.90 17.41 910.17 18.22 909.81 18.63 C 884.61 24.62 859.52 31.10 834.43 37.57 C 832.95 37.88 831.49 38.21 830.04 38.54 C 830.82 38.99 831.62 39.43 832.43 39.88 C 831.70 39.81 830.24 39.67 829.51 39.61 C 827.37 39.51 825.24 39.83 823.21 40.47 C 817.62 42.13 811.94 43.48 806.31 44.99 C 805.10 44.51 803.91 44.03 802.73 43.55 C 821.85 38.39 841.15 33.89 860.35 29.04 C 859.76 29.01 858.57 28.95 857.98 28.93 Z"
     id="path18" />
  <path
     fill="#eb7d7d"
     d=" M 468.99 20.62 C 476.19 20.18 483.59 19.76 490.63 21.68 C 487.52 22.12 484.39 22.24 481.27 22.53 C 479.95 22.50 480.70 25.50 478.94 23.29 C 476.29 22.96 473.85 24.67 471.28 25.11 C 460.55 26.77 450.27 31.14 441.60 37.67 C 429.01 46.87 419.14 59.05 408.79 70.57 C 399.88 74.67 394.00 82.62 387.26 89.35 C 382.80 92.09 378.93 95.66 374.49 98.41 C 367.21 101.45 359.05 103.15 351.21 101.50 C 354.11 100.82 356.97 99.98 359.84 99.16 C 363.95 97.97 368.19 97.06 372.05 95.14 C 380.36 90.85 387.14 84.29 393.78 77.82 C 404.12 67.13 413.87 55.87 424.73 45.69 C 437.18 34.04 451.82 23.52 468.99 20.62 Z"
     id="path20" />
  <path
     fill="#ed5b5a"
     d=" M 478.94 23.29 C 480.70 25.50 479.95 22.50 481.27 22.53 C 484.39 22.24 487.52 22.12 490.63 21.68 C 494.50 22.50 498.29 23.71 501.88 25.39 C 500.13 26.82 498.11 27.88 495.82 27.99 C 492.74 26.89 489.56 26.05 486.31 25.65 C 481.33 25.02 476.29 25.20 471.28 25.11 C 473.85 24.67 476.29 22.96 478.94 23.29 Z"
     id="path22" />
  <path
     fill="#660404"
     d=" M 441.60 37.67 C 450.27 31.14 460.55 26.77 471.28 25.11 C 476.29 25.20 481.33 25.02 486.31 25.65 C 488.85 30.42 496.66 28.50 498.19 34.10 C 487.98 29.03 475.95 28.86 465.03 31.44 C 456.32 33.31 448.48 37.98 441.65 43.57 C 419.30 62.18 406.08 89.13 384.52 108.52 C 377.14 114.99 367.57 120.32 357.45 119.29 C 342.52 117.54 328.96 110.51 315.53 104.23 C 289.50 91.62 262.98 79.16 234.52 73.17 C 237.12 72.69 239.70 72.08 242.34 71.88 C 245.64 73.26 248.86 74.91 252.40 75.62 C 264.99 78.55 276.67 84.27 288.40 89.55 C 301.64 94.48 313.69 102.04 326.87 107.10 C 333.78 110.96 341.41 113.19 349.04 115.10 C 355.82 115.90 363.40 116.23 369.26 112.13 C 371.44 110.86 373.56 109.47 375.70 108.12 C 382.83 104.47 387.93 98.09 393.26 92.31 C 397.21 87.09 402.18 82.32 404.19 75.93 C 405.86 74.27 407.31 72.40 408.79 70.57 C 419.14 59.05 429.01 46.87 441.60 37.67 Z"
     id="path24" />
  <path
     fill="#e83439"
     d=" M 501.88 25.39 C 508.83 28.65 515.70 32.60 520.78 38.47 C 519.31 39.19 517.84 39.89 516.36 40.59 C 516.42 39.96 516.48 39.34 516.55 38.71 C 514.53 38.17 512.54 37.50 510.66 36.61 C 506.25 32.90 501.15 30.12 495.82 27.99 C 498.11 27.88 500.13 26.82 501.88 25.39 Z"
     id="path26" />
  <path
     fill="#a60a0a"
     d=" M 498.19 34.10 C 496.66 28.50 488.85 30.42 486.31 25.65 C 489.56 26.05 492.74 26.89 495.82 27.99 C 501.15 30.12 506.25 32.90 510.66 36.61 C 512.41 39.98 514.42 43.21 516.79 46.18 C 521.02 51.58 524.13 57.71 527.42 63.68 C 528.19 65.05 528.49 66.61 528.78 68.14 C 526.49 64.80 524.52 61.26 522.20 57.95 C 516.26 48.24 508.45 39.36 498.19 34.10 Z"
     id="path28" />
  <path
     fill="#e48284"
     d=" M 696.46 67.36 C 750.01 53.37 804.11 41.57 857.98 28.93 C 858.57 28.95 859.76 29.01 860.35 29.04 C 841.15 33.89 821.85 38.39 802.73 43.55 C 770.49 51.90 738.25 60.23 706.03 68.65 C 702.90 67.85 699.69 67.38 696.46 67.36 Z"
     id="path30" />
  <path
     fill="#fff5f4"
     d=" M 465.03 31.44 C 475.95 28.86 487.98 29.03 498.19 34.10 C 508.45 39.36 516.26 48.24 522.20 57.95 C 526.53 64.67 529.90 71.94 533.15 79.23 C 534.02 81.40 534.90 83.57 535.87 85.69 C 540.20 96.02 543.85 106.63 548.39 116.87 C 548.65 117.37 549.17 118.38 549.43 118.88 C 551.68 118.49 553.88 117.82 556.06 117.14 C 573.97 111.71 591.95 106.49 609.76 100.76 L 609.91 100.72 C 637.26 92.92 664.53 84.79 691.83 76.81 C 729.96 66.09 767.99 54.99 806.31 44.99 C 811.94 43.48 817.62 42.13 823.21 40.47 C 825.24 39.83 827.37 39.51 829.51 39.61 C 827.95 40.22 826.85 41.46 825.92 42.78 C 823.80 42.17 821.88 42.71 820.63 44.57 C 779.26 56.04 737.82 67.29 696.58 79.27 C 667.31 87.70 638.11 96.41 608.84 104.87 C 611.52 106.90 614.53 108.78 616.07 111.90 C 620.07 119.16 619.98 127.77 619.61 135.81 C 621.60 136.44 623.60 137.16 625.39 138.29 C 624.70 138.92 623.33 140.19 622.65 140.83 C 621.39 140.28 620.12 139.76 618.86 139.26 C 617.51 142.16 616.51 145.21 615.89 148.35 C 615.40 147.14 614.93 145.92 614.48 144.71 C 616.09 135.22 617.62 125.15 613.86 115.94 C 612.83 113.10 610.72 110.85 608.23 109.22 C 604.72 106.61 599.98 107.37 596.26 109.07 C 591.68 111.25 587.77 114.61 584.15 118.13 C 576.50 126.18 570.18 135.44 564.97 145.23 C 561.77 154.26 559.56 163.61 556.66 172.73 C 556.02 174.28 555.54 176.17 553.82 176.86 C 548.54 179.66 542.75 181.30 537.20 183.45 C 523.92 188.41 510.97 194.68 499.88 203.61 C 499.20 203.02 497.84 201.86 497.16 201.27 C 513.01 187.80 533.01 181.12 552.19 174.01 C 556.03 164.41 557.84 154.15 561.47 144.49 C 567.39 132.52 575.23 121.42 584.89 112.17 C 574.55 115.45 564.11 118.42 553.77 121.70 C 551.69 122.44 549.48 122.58 547.30 122.64 C 544.72 118.66 543.31 114.10 541.48 109.76 C 533.82 90.71 527.27 70.83 515.16 54.00 C 508.10 44.27 498.11 35.92 485.94 33.94 C 475.48 32.75 464.47 33.91 455.07 38.94 C 445.75 43.81 438.07 51.22 431.10 58.97 C 418.79 72.82 408.60 88.40 396.18 102.14 C 388.09 110.94 378.60 119.68 366.57 122.30 C 359.46 124.09 352.16 122.40 345.25 120.56 C 330.66 116.17 317.15 108.97 303.42 102.50 C 281.26 91.90 258.48 82.06 234.39 76.83 C 217.84 73.39 200.80 71.87 183.94 73.44 C 163.92 74.87 143.92 80.04 126.58 90.39 C 99.58 106.24 79.26 131.53 65.06 159.09 C 51.69 185.00 42.96 213.21 38.97 242.08 C 36.79 258.26 35.82 274.65 36.95 290.96 C 38.84 318.78 47.83 346.00 62.38 369.76 C 63.59 371.69 64.75 373.66 65.65 375.77 C 66.36 379.21 70.84 381.44 68.66 385.27 C 54.56 367.27 44.96 345.98 38.72 324.05 C 35.39 311.29 33.56 298.18 32.76 285.02 C 31.97 244.80 40.13 204.36 56.72 167.69 C 67.47 144.62 81.61 122.83 100.35 105.45 C 116.10 90.74 135.33 79.50 156.31 74.25 C 159.97 73.93 163.59 73.22 167.05 71.97 C 180.44 69.43 194.10 68.90 207.68 69.46 C 216.69 70.25 225.68 71.22 234.52 73.17 C 262.98 79.16 289.50 91.62 315.53 104.23 C 328.96 110.51 342.52 117.54 357.45 119.29 C 367.57 120.32 377.14 114.99 384.52 108.52 C 406.08 89.13 419.30 62.18 441.65 43.57 C 448.48 37.98 456.32 33.31 465.03 31.44 Z"
     id="path32" />
  <path
     fill="#fdfdfd"
     d=" M 912.18 37.06 C 917.82 36.35 923.68 33.30 929.30 35.57 C 929.57 36.11 930.12 37.18 930.40 37.72 C 930.39 38.61 930.39 39.51 930.41 40.41 L 929.73 40.44 C 929.07 42.57 926.63 43.04 924.87 43.85 C 917.87 46.37 910.65 48.17 903.50 50.18 C 898.13 51.74 892.65 52.87 887.35 54.66 C 876.77 57.28 866.45 60.99 855.76 63.03 C 859.67 63.15 864.07 63.97 866.37 67.51 C 870.18 73.21 871.04 80.63 869.37 87.21 C 871.31 85.97 873.49 84.52 873.92 82.08 C 876.69 72.53 879.62 61.64 888.35 55.79 C 891.83 53.80 895.98 54.31 898.98 56.86 C 902.91 53.77 906.67 50.19 911.62 48.65 C 915.85 48.36 920.22 49.80 922.58 53.52 C 926.83 61.27 927.12 72.03 920.77 78.77 C 918.58 81.42 915.15 82.29 911.87 81.56 C 907.99 78.45 908.17 73.10 909.78 68.84 C 910.53 66.65 911.04 64.38 911.28 62.07 C 899.58 72.07 891.69 85.79 885.81 99.84 C 883.11 106.25 881.06 112.91 879.36 119.63 C 878.33 122.98 874.73 124.51 871.48 123.52 C 870.49 122.41 869.52 121.31 868.56 120.18 C 868.44 119.63 868.19 118.53 868.07 117.98 C 866.12 112.16 868.05 106.08 869.50 100.39 C 867.88 101.05 866.04 101.34 864.61 102.35 C 858.82 115.45 850.51 128.75 837.13 135.10 C 832.36 137.50 825.68 138.30 821.98 133.64 C 821.63 133.60 820.91 133.52 820.56 133.48 C 819.53 134.81 818.33 135.98 817.18 137.18 C 816.52 137.82 815.87 138.47 815.23 139.12 C 812.81 141.07 810.39 143.24 807.34 144.11 C 805.53 144.47 803.69 144.62 801.96 145.25 C 796.94 144.46 792.58 140.76 792.50 135.38 C 784.33 144.16 775.42 153.73 763.15 156.19 C 758.71 156.63 754.27 155.21 751.03 152.14 C 746.46 156.85 742.00 162.24 735.63 164.51 C 732.29 165.29 728.68 165.05 725.61 163.45 C 722.04 160.75 721.50 156.16 720.76 152.09 C 720.47 146.56 722.11 141.17 722.28 135.66 C 721.96 136.86 721.68 138.07 721.42 139.28 C 711.26 160.22 700.36 181.23 684.51 198.50 C 679.18 204.13 673.66 209.63 667.31 214.11 C 659.35 220.37 649.92 224.20 641.23 229.23 C 636.14 230.44 630.69 228.04 627.62 223.93 C 625.18 220.52 626.26 215.85 629.03 212.99 C 635.38 205.95 641.69 198.84 646.79 190.81 C 649.55 186.93 651.46 182.44 654.76 178.94 C 649.80 183.13 643.44 185.47 637.01 185.97 C 631.66 185.62 626.31 183.48 622.91 179.19 C 618.67 174.71 616.72 168.72 614.84 162.98 C 614.72 162.24 614.49 160.74 614.38 159.99 C 613.87 160.27 613.38 160.55 612.89 160.83 C 612.25 160.32 610.95 159.31 610.31 158.80 C 612.22 154.27 613.50 149.52 614.48 144.71 C 614.93 145.92 615.40 147.14 615.89 148.35 C 615.47 152.32 617.07 156.12 617.88 159.95 C 619.82 167.76 622.87 176.24 630.14 180.60 C 634.12 182.97 638.84 182.37 643.14 181.34 C 654.72 177.31 662.48 166.84 667.09 155.93 C 674.45 138.26 676.69 119.02 678.46 100.12 C 678.64 98.51 678.97 96.92 679.30 95.34 C 679.82 95.38 680.86 95.47 681.38 95.52 C 684.87 102.86 682.67 111.07 682.30 118.79 C 680.95 127.29 679.08 135.76 676.06 143.84 C 672.97 152.68 668.40 160.88 663.99 169.10 C 655.32 184.56 646.26 200.03 633.96 212.95 C 631.85 214.90 630.32 217.34 629.46 220.08 C 631.15 222.48 633.17 225.02 636.21 225.66 C 639.20 226.53 642.05 224.80 644.54 223.35 C 648.72 220.83 653.27 218.99 657.41 216.40 C 673.32 206.83 686.05 192.75 696.32 177.43 C 711.98 153.95 722.45 127.60 733.56 101.80 C 735.72 95.96 737.97 89.13 734.88 83.20 C 734.18 81.53 732.41 80.92 730.92 80.21 C 729.59 81.90 727.75 83.53 727.64 85.83 C 726.90 90.26 729.76 94.07 731.33 97.98 C 728.84 102.19 727.10 106.77 725.09 111.21 C 717.24 128.50 708.59 145.46 698.48 161.54 C 688.83 176.46 677.87 190.78 664.32 202.37 C 655.63 208.66 646.38 214.13 637.41 219.99 C 649.87 203.63 660.93 186.18 670.11 167.76 C 679.85 147.76 687.81 126.32 688.98 103.91 C 689.64 100.05 689.38 95.46 686.02 92.87 C 683.62 90.59 678.30 90.21 676.96 93.81 C 674.71 98.79 673.84 104.25 672.72 109.56 C 670.08 123.06 667.70 136.67 663.56 149.83 C 660.89 157.64 657.65 165.85 650.95 171.10 C 647.42 173.92 642.48 174.13 638.41 172.42 C 632.79 170.99 627.85 166.13 627.84 160.09 C 627.26 153.56 628.95 145.14 622.65 140.83 C 623.33 140.19 624.70 138.92 625.39 138.29 C 632.02 143.37 631.35 152.52 631.48 159.97 C 631.28 164.87 635.89 167.65 639.80 169.37 C 642.64 169.68 645.87 170.30 648.36 168.49 C 654.44 164.00 657.20 156.65 659.72 149.82 C 664.81 134.95 666.91 119.32 670.22 104.01 C 671.23 99.67 672.06 95.17 674.21 91.22 C 676.72 86.91 682.86 86.65 686.85 88.96 C 690.62 91.24 692.86 95.62 692.78 100.00 C 692.55 116.98 688.18 133.61 682.13 149.38 C 676.82 163.05 670.30 176.23 662.79 188.82 C 658.98 194.93 655.67 201.50 650.66 206.74 C 651.77 206.16 652.90 205.60 654.04 205.07 C 662.87 199.91 670.05 192.50 676.67 184.81 C 698.97 159.34 713.29 128.30 727.32 97.82 C 725.55 94.48 724.19 90.94 723.71 87.17 C 724.34 83.12 725.96 77.53 730.88 77.19 C 735.44 76.38 738.77 80.97 739.09 85.06 C 741.06 80.02 744.13 74.50 749.98 73.48 C 752.19 74.70 754.84 75.90 755.38 78.66 C 756.68 85.33 753.70 93.29 747.20 96.12 C 751.03 97.45 752.97 101.80 751.13 105.49 C 746.26 117.05 741.13 128.53 737.25 140.47 C 736.06 144.65 734.37 148.78 734.33 153.19 C 738.88 149.21 743.39 145.05 747.23 140.36 C 748.85 126.32 754.83 113.16 762.60 101.49 C 766.32 96.04 770.78 90.82 776.74 87.78 C 780.84 85.75 786.34 86.11 789.65 89.49 C 793.22 92.99 794.22 98.28 794.31 103.10 C 794.43 109.02 791.63 115.60 785.83 117.91 C 783.01 119.48 780.04 116.93 779.12 114.34 C 777.62 111.27 779.05 107.94 779.83 104.88 C 771.88 117.12 762.82 129.81 761.35 144.75 C 771.77 142.84 779.44 134.75 786.01 127.03 C 788.77 123.18 792.56 119.66 793.41 114.80 C 795.95 102.25 799.43 89.86 804.39 78.03 C 800.54 78.70 796.86 80.37 792.94 80.43 C 789.89 80.50 788.53 77.46 787.49 75.12 C 788.51 73.29 789.26 70.90 791.52 70.25 C 797.68 67.87 804.31 66.89 810.42 64.39 C 813.89 57.83 816.83 50.96 820.63 44.57 C 821.88 42.71 823.80 42.17 825.92 42.78 C 821.15 50.74 816.99 59.04 813.18 67.48 C 806.06 69.76 798.78 71.49 791.70 73.88 C 791.63 74.77 791.58 75.65 791.55 76.54 C 798.25 77.03 804.36 73.58 810.82 72.34 C 804.15 86.55 799.54 101.69 796.62 117.10 C 796.00 120.41 793.46 122.88 791.66 125.60 C 784.55 135.12 775.81 144.52 764.05 147.94 C 762.31 148.69 760.57 147.65 758.92 147.21 C 758.51 145.82 758.09 144.44 757.68 143.06 C 759.84 129.60 766.94 117.64 774.43 106.50 C 776.92 102.53 780.42 99.34 784.51 97.07 C 785.59 101.98 783.53 106.68 781.50 111.03 C 782.42 112.23 782.69 114.97 784.75 114.48 C 787.43 113.36 789.11 110.61 790.10 107.99 C 791.57 101.89 790.69 94.58 785.49 90.45 C 783.27 90.45 780.97 90.12 778.82 90.77 C 774.46 92.82 771.10 96.44 768.12 100.12 C 762.67 107.12 758.55 115.07 755.19 123.26 C 753.04 128.99 750.98 134.98 751.28 141.20 C 747.42 146.03 742.94 150.33 738.41 154.52 C 736.69 156.29 734.31 157.00 732.02 157.66 C 731.65 157.07 730.90 155.87 730.53 155.27 C 730.60 153.53 730.67 151.78 730.77 150.04 C 734.70 134.68 740.78 119.97 747.26 105.53 C 747.92 104.02 748.50 102.45 748.35 100.76 C 745.12 99.19 742.02 101.76 739.62 103.66 C 735.74 106.57 734.61 111.50 732.83 115.75 C 728.76 126.76 724.78 138.10 724.44 149.96 C 724.52 153.51 724.67 157.78 727.66 160.22 C 731.16 162.33 735.79 161.18 738.83 158.74 C 743.72 155.03 747.76 150.36 751.89 145.85 C 753.26 148.80 755.22 152.17 758.88 152.38 C 766.86 153.39 773.60 148.14 779.43 143.44 C 785.43 137.96 791.13 132.06 795.58 125.22 C 796.02 129.89 794.85 135.16 797.68 139.27 C 800.94 142.91 806.41 141.14 809.87 138.77 C 814.58 135.20 818.41 130.62 822.13 126.06 C 823.24 128.99 824.45 132.47 827.83 133.41 C 832.08 134.01 836.03 131.66 839.59 129.64 C 850.15 122.60 856.74 111.25 861.83 99.94 C 865.85 97.30 870.96 96.51 874.63 93.13 C 873.57 99.10 871.69 104.89 870.86 110.90 C 870.29 114.58 871.42 118.38 873.95 121.12 C 876.96 117.66 877.23 112.95 878.69 108.80 C 884.26 91.74 892.73 75.28 905.41 62.40 C 908.04 59.84 910.69 56.69 914.63 56.44 C 914.90 60.61 914.87 64.87 913.53 68.87 C 912.57 71.60 912.24 74.48 912.60 77.35 C 913.23 77.64 914.50 78.23 915.13 78.52 C 924.19 73.33 924.23 59.20 916.84 52.61 C 910.14 51.11 904.95 56.33 900.80 60.77 C 895.97 65.63 892.73 71.74 888.26 76.90 C 891.36 71.15 894.58 65.26 895.65 58.74 C 892.59 57.37 889.34 58.89 887.34 61.31 C 881.05 68.15 879.26 77.62 876.27 86.11 C 873.05 89.78 868.81 92.67 864.09 94.00 C 864.82 91.33 865.49 88.65 866.04 85.93 C 867.18 80.25 866.58 73.75 863.00 69.02 C 859.49 65.20 853.86 66.64 849.87 68.80 C 841.87 73.24 835.98 80.62 831.23 88.28 C 825.06 98.39 820.88 110.12 821.30 122.08 C 816.38 127.96 811.27 134.45 803.94 137.36 C 803.38 137.00 802.25 136.28 801.68 135.92 C 800.92 126.26 803.95 116.89 806.77 107.79 C 811.24 94.48 816.39 81.37 822.61 68.78 C 843.42 63.33 864.08 57.33 884.82 51.59 C 895.39 48.63 906.06 45.97 916.57 42.78 C 920.25 41.66 924.07 40.72 927.33 38.57 C 925.12 38.48 922.92 38.58 920.73 38.73 C 911.76 40.98 902.66 42.70 893.73 45.08 C 870.69 51.58 847.55 57.76 824.60 64.54 C 827.85 58.95 831.75 53.76 834.94 48.12 C 836.09 46.19 835.64 43.87 835.59 41.74 C 834.53 41.10 833.50 40.46 832.43 39.88 C 831.62 39.43 830.82 38.99 830.04 38.54 C 831.49 38.21 832.95 37.88 834.43 37.57 C 836.21 38.13 837.96 38.83 839.76 39.38 C 839.48 39.79 838.91 40.61 838.62 41.02 C 841.49 46.71 836.82 52.30 833.65 56.73 C 833.56 57.19 833.36 58.10 833.26 58.56 C 837.86 56.60 842.78 55.62 847.56 54.24 C 859.93 50.66 872.39 47.43 884.74 43.79 C 893.85 41.40 902.97 39.05 912.18 37.06 Z"
     id="path36" />
  <path
     fill="#e40808"
     d=" M 510.66 36.61 C 512.54 37.50 514.53 38.17 516.55 38.71 C 516.48 39.34 516.42 39.96 516.36 40.59 C 517.84 39.89 519.31 39.19 520.78 38.47 C 521.67 43.38 525.95 46.50 528.10 50.81 C 536.18 64.95 542.04 80.23 547.32 95.60 C 548.86 100.41 550.17 105.31 552.44 109.85 C 552.23 110.19 551.83 110.87 551.62 111.20 C 552.00 111.63 552.75 112.47 553.13 112.89 C 551.72 114.42 550.13 115.74 548.39 116.87 C 543.85 106.63 540.20 96.02 535.87 85.69 C 536.06 83.73 536.10 81.70 535.18 79.90 C 534.67 79.74 533.66 79.40 533.15 79.23 C 529.90 71.94 526.53 64.67 522.20 57.95 C 524.52 61.26 526.49 64.80 528.78 68.14 C 528.49 66.61 528.19 65.05 527.42 63.68 C 524.13 57.71 521.02 51.58 516.79 46.18 C 514.42 43.21 512.41 39.98 510.66 36.61 Z"
     id="path38" />
  <path
     fill="#020202"
     d=" M 920.73 38.73 C 922.92 38.58 925.12 38.48 927.33 38.57 C 924.07 40.72 920.25 41.66 916.57 42.78 C 906.06 45.97 895.39 48.63 884.82 51.59 C 864.08 57.33 843.42 63.33 822.61 68.78 C 816.39 81.37 811.24 94.48 806.77 107.79 C 803.95 116.89 800.92 126.26 801.68 135.92 C 802.25 136.28 803.38 137.00 803.94 137.36 C 811.27 134.45 816.38 127.96 821.30 122.08 C 820.88 110.12 825.06 98.39 831.23 88.28 C 835.98 80.62 841.87 73.24 849.87 68.80 C 853.86 66.64 859.49 65.20 863.00 69.02 C 866.58 73.75 867.18 80.25 866.04 85.93 C 865.49 88.65 864.82 91.33 864.09 94.00 C 868.81 92.67 873.05 89.78 876.27 86.11 C 879.26 77.62 881.05 68.15 887.34 61.31 C 889.34 58.89 892.59 57.37 895.65 58.74 C 894.58 65.26 891.36 71.15 888.26 76.90 C 892.73 71.74 895.97 65.63 900.80 60.77 C 904.95 56.33 910.14 51.11 916.84 52.61 C 924.23 59.20 924.19 73.33 915.13 78.52 C 914.50 78.23 913.23 77.64 912.60 77.35 C 912.24 74.48 912.57 71.60 913.53 68.87 C 914.87 64.87 914.90 60.61 914.63 56.44 C 910.69 56.69 908.04 59.84 905.41 62.40 C 892.73 75.28 884.26 91.74 878.69 108.80 C 877.23 112.95 876.96 117.66 873.95 121.12 C 871.42 118.38 870.29 114.58 870.86 110.90 C 871.69 104.89 873.57 99.10 874.63 93.13 C 870.96 96.51 865.85 97.30 861.83 99.94 C 856.74 111.25 850.15 122.60 839.59 129.64 C 836.03 131.66 832.08 134.01 827.83 133.41 C 824.45 132.47 823.24 128.99 822.13 126.06 C 818.41 130.62 814.58 135.20 809.87 138.77 C 806.41 141.14 800.94 142.91 797.68 139.27 C 794.85 135.16 796.02 129.89 795.58 125.22 C 791.13 132.06 785.43 137.96 779.43 143.44 C 773.60 148.14 766.86 153.39 758.88 152.38 C 755.22 152.17 753.26 148.80 751.89 145.85 C 747.76 150.36 743.72 155.03 738.83 158.74 C 735.79 161.18 731.16 162.33 727.66 160.22 C 724.67 157.78 724.52 153.51 724.44 149.96 C 724.78 138.10 728.76 126.76 732.83 115.75 C 734.61 111.50 735.74 106.57 739.62 103.66 C 742.02 101.76 745.12 99.19 748.35 100.76 C 748.50 102.45 747.92 104.02 747.26 105.53 C 740.78 119.97 734.70 134.68 730.77 150.04 C 730.67 151.78 730.60 153.53 730.53 155.27 C 730.90 155.87 731.65 157.07 732.02 157.66 C 734.31 157.00 736.69 156.29 738.41 154.52 C 742.94 150.33 747.42 146.03 751.28 141.20 C 750.98 134.98 753.04 128.99 755.19 123.26 C 758.55 115.07 762.67 107.12 768.12 100.12 C 771.10 96.44 774.46 92.82 778.82 90.77 C 780.97 90.12 783.27 90.45 785.49 90.45 C 790.69 94.58 791.57 101.89 790.10 107.99 C 789.11 110.61 787.43 113.36 784.75 114.48 C 782.69 114.97 782.42 112.23 781.50 111.03 C 783.53 106.68 785.59 101.98 784.51 97.07 C 780.42 99.34 776.92 102.53 774.43 106.50 C 766.94 117.64 759.84 129.60 757.68 143.06 C 758.09 144.44 758.51 145.82 758.92 147.21 C 760.57 147.65 762.31 148.69 764.05 147.94 C 775.81 144.52 784.55 135.12 791.66 125.60 C 793.46 122.88 796.00 120.41 796.62 117.10 C 799.54 101.69 804.15 86.55 810.82 72.34 C 804.36 73.58 798.25 77.03 791.55 76.54 C 791.58 75.65 791.63 74.77 791.70 73.88 C 798.78 71.49 806.06 69.76 813.18 67.48 C 816.99 59.04 821.15 50.74 825.92 42.78 C 826.85 41.46 827.95 40.22 829.51 39.61 C 830.24 39.67 831.70 39.81 832.43 39.88 C 833.50 40.46 834.53 41.10 835.59 41.74 C 835.64 43.87 836.09 46.19 834.94 48.12 C 831.75 53.76 827.85 58.95 824.60 64.54 C 847.55 57.76 870.69 51.58 893.73 45.08 C 902.66 42.70 911.76 40.98 920.73 38.73 Z"
     id="path40" />
  <path
     fill="#a60a0a"
     d=" M 520.78 38.47 C 523.47 41.43 526.12 44.47 528.17 47.92 C 539.83 66.37 547.11 87.12 553.66 107.81 C 553.36 108.32 552.74 109.34 552.44 109.85 C 550.17 105.31 548.86 100.41 547.32 95.60 C 542.04 80.23 536.18 64.95 528.10 50.81 C 525.95 46.50 521.67 43.38 520.78 38.47 Z"
     id="path42" />
  <path
     fill="#590303"
     d=" M 706.03 68.65 C 738.25 60.23 770.49 51.90 802.73 43.55 C 803.91 44.03 805.10 44.51 806.31 44.99 C 767.99 54.99 729.96 66.09 691.83 76.81 C 688.82 76.35 685.78 76.16 682.79 76.72 L 681.38 75.46 C 689.61 73.25 697.86 71.10 706.03 68.65 Z"
     id="path44" />
  <path
     fill="#df8786"
     d=" M 153.13 60.11 C 162.98 58.24 173.00 58.29 182.96 57.69 C 190.66 57.99 198.37 58.32 206.05 58.92 C 214.88 60.30 223.95 60.56 232.51 63.34 C 225.36 63.46 218.47 61.13 211.33 61.21 C 193.87 58.95 176.01 58.52 158.61 61.54 C 148.50 62.46 138.70 65.04 128.94 67.72 C 121.78 69.95 115.04 73.32 107.94 75.73 C 104.03 76.92 101.30 80.21 97.54 81.71 C 89.93 84.93 83.51 90.20 76.74 94.82 C 68.04 102.50 58.52 109.45 51.62 118.92 C 49.08 121.96 46.32 124.85 44.23 128.24 C 43.64 127.89 42.45 127.20 41.85 126.85 C 58.68 104.11 81.18 85.58 106.83 73.61 C 120.44 67.60 134.70 63.14 149.36 60.59 C 150.66 61.59 152.29 61.86 153.13 60.11 Z"
     id="path50" />
  <path
     fill="#fb6767"
     d=" M 158.61 61.54 C 176.01 58.52 193.87 58.95 211.33 61.21 C 207.81 62.31 204.26 63.37 200.60 63.79 C 192.47 63.56 184.31 63.28 176.22 64.26 C 170.85 64.29 165.48 64.25 160.12 64.63 C 159.74 63.85 158.99 62.31 158.61 61.54 Z"
     id="path52" />
  <path
     fill="#e95e61"
     d=" M 211.33 61.21 C 218.47 61.13 225.36 63.46 232.51 63.34 C 248.28 66.25 263.82 70.64 278.87 76.19 C 272.70 76.48 266.71 74.39 260.55 75.03 C 249.44 71.78 238.24 68.53 226.73 67.10 C 218.14 65.21 209.33 64.66 200.60 63.79 C 204.26 63.37 207.81 62.31 211.33 61.21 Z"
     id="path54" />
  <path
     fill="#ff7370"
     d=" M 128.94 67.72 C 138.70 65.04 148.50 62.46 158.61 61.54 C 158.99 62.31 159.74 63.85 160.12 64.63 C 143.19 66.75 126.25 70.71 110.90 78.32 C 100.57 82.52 91.10 88.60 81.97 94.94 C 72.98 101.73 64.26 109.00 56.89 117.56 C 55.14 118.02 53.38 118.48 51.62 118.92 C 58.52 109.45 68.04 102.50 76.74 94.82 C 83.51 90.20 89.93 84.93 97.54 81.71 C 101.30 80.21 104.03 76.92 107.94 75.73 C 115.04 73.32 121.78 69.95 128.94 67.72 Z"
     id="path56" />
  <path
     fill="#d71217"
     d=" M 110.90 78.32 C 126.25 70.71 143.19 66.75 160.12 64.63 C 165.48 64.25 170.85 64.29 176.22 64.26 C 160.96 67.67 145.28 70.37 131.09 77.23 C 121.17 83.06 111.03 88.73 102.30 96.31 C 98.36 99.56 94.81 103.24 91.10 106.74 C 85.34 111.46 81.07 117.64 76.31 123.29 C 69.98 132.48 63.24 141.48 58.40 151.58 C 54.89 158.20 52.00 165.15 48.15 171.59 C 48.56 167.01 51.23 163.19 52.96 159.07 C 54.69 154.95 57.18 151.24 59.13 147.24 C 62.96 139.37 68.23 132.35 72.86 124.95 C 74.61 122.11 76.79 119.57 79.02 117.10 C 83.29 112.36 86.77 106.89 91.71 102.77 C 96.80 98.49 101.87 94.20 106.87 89.82 C 113.87 84.64 121.22 79.89 128.99 75.94 C 133.70 73.46 138.95 72.20 143.50 69.40 C 136.29 69.49 129.80 72.88 123.14 75.18 C 119.16 76.57 115.26 78.78 110.90 78.32 Z"
     id="path58" />
  <path
     fill="#7d0101"
     d=" M 176.22 64.26 C 184.31 63.28 192.47 63.56 200.60 63.79 C 209.33 64.66 218.14 65.21 226.73 67.10 C 231.69 69.49 237.27 69.84 242.34 71.88 C 239.70 72.08 237.12 72.69 234.52 73.17 C 225.68 71.22 216.69 70.25 207.68 69.46 C 210.64 69.62 213.61 69.56 216.55 69.21 C 211.03 66.79 204.84 67.72 198.99 67.34 C 187.60 66.44 176.19 67.89 164.96 69.73 C 154.05 70.30 144.08 75.19 134.01 78.95 C 122.96 84.82 111.55 90.62 102.64 99.63 C 96.39 104.84 91.13 111.04 85.63 117.00 L 83.59 117.06 C 86.36 113.82 89.14 110.56 91.10 106.74 C 94.81 103.24 98.36 99.56 102.30 96.31 C 111.03 88.73 121.17 83.06 131.09 77.23 C 145.28 70.37 160.96 67.67 176.22 64.26 Z"
     id="path60" />
  <path
     fill="#500c0d"
     d=" M 164.96 69.73 C 176.19 67.89 187.60 66.44 198.99 67.34 C 204.84 67.72 211.03 66.79 216.55 69.21 C 213.61 69.56 210.64 69.62 207.68 69.46 C 194.10 68.90 180.44 69.43 167.05 71.97 C 163.38 72.25 159.75 72.94 156.31 74.25 C 135.33 79.50 116.10 90.74 100.35 105.45 C 81.61 122.83 67.47 144.62 56.72 167.69 C 55.82 162.66 59.24 158.45 61.40 154.25 C 67.71 143.77 73.06 132.58 81.14 123.27 C 82.85 121.34 84.24 119.16 85.63 117.00 C 91.13 111.04 96.39 104.84 102.64 99.63 C 111.55 90.62 122.96 84.82 134.01 78.95 C 144.08 75.19 154.05 70.30 164.96 69.73 Z"
     id="path64" />
  <path
     fill="#a20201"
     d=" M 226.73 67.10 C 238.24 68.53 249.44 71.78 260.55 75.03 C 282.93 82.41 304.22 92.56 326.06 101.32 C 327.72 102.89 329.38 104.59 331.54 105.48 C 338.77 108.65 346.23 111.42 354.01 112.89 C 359.08 114.08 364.19 112.49 369.26 112.13 C 363.40 116.23 355.82 115.90 349.04 115.10 C 341.41 113.19 333.78 110.96 326.87 107.10 C 313.69 102.04 301.64 94.48 288.40 89.55 C 276.67 84.27 264.99 78.55 252.40 75.62 C 248.86 74.91 245.64 73.26 242.34 71.88 C 237.27 69.84 231.69 69.49 226.73 67.10 Z"
     id="path66" />
  <path
     fill="#eb7d7f"
     d=" M 573.09 101.80 C 613.88 89.17 655.00 77.59 696.46 67.36 C 699.69 67.38 702.90 67.85 706.03 68.65 C 697.86 71.10 689.61 73.25 681.38 75.46 C 645.51 85.30 609.75 95.55 574.21 106.51 C 567.14 108.49 560.28 111.19 553.13 112.89 C 552.75 112.47 552.00 111.63 551.62 111.20 C 551.83 110.87 552.23 110.19 552.44 109.85 C 552.74 109.34 553.36 108.32 553.66 107.81 C 560.19 105.99 566.64 103.91 573.09 101.80 Z"
     id="path68" />
  <path
     fill="#fa0202"
     d=" M 123.14 75.18 C 129.80 72.88 136.29 69.49 143.50 69.40 C 138.95 72.20 133.70 73.46 128.99 75.94 C 121.22 79.89 113.87 84.64 106.87 89.82 C 101.87 94.20 96.80 98.49 91.71 102.77 C 86.77 106.89 83.29 112.36 79.02 117.10 C 76.79 119.57 74.61 122.11 72.86 124.95 C 68.23 132.35 62.96 139.37 59.13 147.24 C 57.18 151.24 54.69 154.95 52.96 159.07 C 51.23 163.19 48.56 167.01 48.15 171.59 C 45.86 178.27 42.66 184.62 40.78 191.44 C 39.40 196.67 37.39 201.72 36.27 207.01 C 35.10 212.82 32.61 218.35 32.32 224.33 C 31.40 227.49 30.57 230.68 30.23 233.97 C 29.19 242.95 27.16 251.86 27.29 260.95 C 26.52 270.95 26.29 281.02 27.25 291.02 C 27.83 307.85 33.36 323.92 38.16 339.88 C 41.26 344.96 43.14 350.64 46.21 355.73 C 47.50 358.03 48.50 360.46 49.52 362.89 C 49.89 362.32 50.63 361.18 51.00 360.62 C 53.49 366.06 56.67 371.14 59.59 376.36 C 64.92 384.85 71.81 392.20 77.92 400.11 C 79.88 402.66 82.14 404.93 84.34 407.26 C 84.94 409.02 85.68 410.77 87.07 412.07 C 90.10 415.07 91.55 419.37 95.17 421.83 C 98.69 424.38 101.54 427.68 104.25 431.05 C 94.72 426.72 85.86 420.89 78.15 413.80 C 68.91 407.94 62.03 399.27 53.77 392.23 C 47.42 385.41 41.02 378.53 36.40 370.36 C 33.51 364.68 29.62 359.49 27.50 353.42 C 24.88 345.88 20.78 338.76 19.99 330.67 C 20.30 326.02 21.16 321.18 19.45 316.68 C 16.29 308.35 16.37 299.33 14.55 290.69 C 13.49 278.17 11.59 265.65 12.05 253.04 C 12.25 246.58 12.39 240.10 11.68 233.67 C 12.30 221.58 14.35 209.67 16.17 197.73 C 18.25 186.71 22.38 176.24 25.78 165.60 C 33.71 148.15 44.29 131.99 56.89 117.56 C 64.26 109.00 72.98 101.73 81.97 94.94 C 91.10 88.60 100.57 82.52 110.90 78.32 C 115.26 78.78 119.16 76.57 123.14 75.18 Z"
     id="path70" />
  <path
     fill="#ff615e"
     d=" M 387.26 89.35 C 394.00 82.62 399.88 74.67 408.79 70.57 C 407.31 72.40 405.86 74.27 404.19 75.93 C 397.71 81.70 391.89 88.20 385.03 93.54 C 377.89 99.24 369.50 103.46 360.35 104.55 C 352.00 104.39 343.05 104.51 335.76 99.82 C 340.90 100.41 346.00 101.55 351.21 101.50 C 359.05 103.15 367.21 101.45 374.49 98.41 C 378.93 95.66 382.80 92.09 387.26 89.35 Z"
     id="path72" />
  <path
     fill="#b0898a"
     d=" M 156.31 74.25 C 159.75 72.94 163.38 72.25 167.05 71.97 C 163.59 73.22 159.97 73.93 156.31 74.25 Z"
     id="path74" />
  <path
     fill="#f44a4c"
     d=" M 260.55 75.03 C 266.71 74.39 272.70 76.48 278.87 76.19 C 295.48 81.66 311.21 89.45 327.72 95.21 C 330.05 97.30 332.79 98.83 335.76 99.82 C 343.05 104.51 352.00 104.39 360.35 104.55 C 348.79 107.19 337.43 102.78 326.06 101.32 C 304.22 92.56 282.93 82.41 260.55 75.03 Z"
     id="path76" />
  <path
     fill="#fdfdfd"
     d=" M 849.09 75.12 C 852.20 73.64 857.06 73.72 858.59 77.41 C 860.81 82.26 859.82 87.88 858.85 92.92 C 858.75 93.58 858.55 94.90 858.44 95.56 C 854.88 95.74 851.36 95.31 848.00 94.12 C 845.48 92.50 842.14 90.43 842.39 87.01 C 841.84 82.17 844.46 76.98 849.09 75.12 Z"
     id="path78" />
  <path
     fill="#d40f14"
     d=" M 385.03 93.54 C 391.89 88.20 397.71 81.70 404.19 75.93 C 402.18 82.32 397.21 87.09 393.26 92.31 C 387.93 98.09 382.83 104.47 375.70 108.12 C 379.28 103.54 384.59 100.31 386.74 94.69 C 386.31 94.40 385.46 93.83 385.03 93.54 Z"
     id="path80" />
  <path
     fill="#6f0201"
     d=" M 574.21 106.51 C 609.75 95.55 645.51 85.30 681.38 75.46 L 682.79 76.72 C 672.31 80.82 661.13 82.62 650.62 86.61 C 644.52 88.87 638.01 89.64 631.90 91.86 C 625.96 93.94 619.66 94.65 613.72 96.65 C 611.71 97.13 610.90 99.16 609.91 100.72 L 609.76 100.76 C 605.26 99.62 600.88 101.29 596.58 102.39 C 591.08 103.78 585.95 106.35 580.34 107.33 C 574.30 108.42 568.73 111.11 562.88 112.84 C 559.26 114.00 554.78 113.76 552.43 117.27 C 553.34 117.24 555.16 117.18 556.06 117.14 C 553.88 117.82 551.68 118.49 549.43 118.88 C 549.17 118.38 548.65 117.37 548.39 116.87 C 550.13 115.74 551.72 114.42 553.13 112.89 C 560.28 111.19 567.14 108.49 574.21 106.51 Z"
     id="path82" />
  <path
     fill="#4a0708"
     d=" M 682.79 76.72 C 685.78 76.16 688.82 76.35 691.83 76.81 C 664.53 84.79 637.26 92.92 609.91 100.72 C 610.90 99.16 611.71 97.13 613.72 96.65 C 619.66 94.65 625.96 93.94 631.90 91.86 C 638.01 89.64 644.52 88.87 650.62 86.61 C 661.13 82.62 672.31 80.82 682.79 76.72 Z"
     id="path84" />
  <path
     fill="#020202"
     d=" M 744.98 81.14 C 746.21 79.43 747.91 77.44 750.21 77.49 C 752.39 78.48 751.74 81.10 751.86 83.01 C 752.00 86.22 750.08 88.90 748.35 91.40 C 746.99 92.33 745.42 92.72 743.79 92.69 C 741.22 89.02 743.15 84.64 744.98 81.14 Z"
     id="path88" />
  <path
     fill="#c32f35"
     d=" M 533.15 79.23 C 533.66 79.40 534.67 79.74 535.18 79.90 C 536.10 81.70 536.06 83.73 535.87 85.69 C 534.90 83.57 534.02 81.40 533.15 79.23 Z"
     id="path90" />
  <path
     fill="#030303"
     d=" M 727.64 85.83 C 727.75 83.53 729.59 81.90 730.92 80.21 C 732.41 80.92 734.18 81.53 734.88 83.20 C 737.97 89.13 735.72 95.96 733.56 101.80 C 722.45 127.60 711.98 153.95 696.32 177.43 C 686.05 192.75 673.32 206.83 657.41 216.40 C 653.27 218.99 648.72 220.83 644.54 223.35 C 642.05 224.80 639.20 226.53 636.21 225.66 C 633.17 225.02 631.15 222.48 629.46 220.08 C 630.32 217.34 631.85 214.90 633.96 212.95 C 646.26 200.03 655.32 184.56 663.99 169.10 C 668.40 160.88 672.97 152.68 676.06 143.84 C 679.08 135.76 680.95 127.29 682.30 118.79 C 682.67 111.07 684.87 102.86 681.38 95.52 C 680.86 95.47 679.82 95.38 679.30 95.34 C 678.97 96.92 678.64 98.51 678.46 100.12 C 676.69 119.02 674.45 138.26 667.09 155.93 C 662.48 166.84 654.72 177.31 643.14 181.34 C 638.84 182.37 634.12 182.97 630.14 180.60 C 622.87 176.24 619.82 167.76 617.88 159.95 C 617.07 156.12 615.47 152.32 615.89 148.35 C 616.51 145.21 617.51 142.16 618.86 139.26 C 620.12 139.76 621.39 140.28 622.65 140.83 C 628.95 145.14 627.26 153.56 627.84 160.09 C 627.85 166.13 632.79 170.99 638.41 172.42 C 642.48 174.13 647.42 173.92 650.95 171.10 C 657.65 165.85 660.89 157.64 663.56 149.83 C 667.70 136.67 670.08 123.06 672.72 109.56 C 673.84 104.25 674.71 98.79 676.96 93.81 C 678.30 90.21 683.62 90.59 686.02 92.87 C 689.38 95.46 689.64 100.05 688.98 103.91 C 687.81 126.32 679.85 147.76 670.11 167.76 C 660.93 186.18 649.87 203.63 637.41 219.99 C 646.38 214.13 655.63 208.66 664.32 202.37 C 677.87 190.78 688.83 176.46 698.48 161.54 C 708.59 145.46 717.24 128.50 725.09 111.21 C 727.10 106.77 728.84 102.19 731.33 97.98 C 729.76 94.07 726.90 90.26 727.64 85.83 Z"
     id="path92" />
  <path
     fill="#fdfdfd"
     d=" M 837.07 86.78 C 838.25 89.52 838.91 92.63 841.20 94.72 C 845.11 98.94 851.13 99.87 856.62 99.90 C 852.37 108.88 847.02 117.65 839.52 124.31 C 837.18 125.39 834.75 128.08 832.07 127.16 C 828.78 123.66 829.34 118.47 829.25 114.04 C 829.00 104.37 833.05 95.34 837.07 86.78 Z"
     id="path94" />
  <path
     fill="#f10608"
     d=" M 360.35 104.55 C 369.50 103.46 377.89 99.24 385.03 93.54 C 385.46 93.83 386.31 94.40 386.74 94.69 C 384.59 100.31 379.28 103.54 375.70 108.12 C 373.56 109.47 371.44 110.86 369.26 112.13 C 364.19 112.49 359.08 114.08 354.01 112.89 C 346.23 111.42 338.77 108.65 331.54 105.48 C 329.38 104.59 327.72 102.89 326.06 101.32 C 337.43 102.78 348.79 107.19 360.35 104.55 Z"
     id="path98" />
  <path
     fill="#d67276"
     d=" M 327.72 95.21 C 332.79 96.18 337.68 97.91 342.80 98.67 C 348.42 99.61 354.17 99.56 359.84 99.16 C 356.97 99.98 354.11 100.82 351.21 101.50 C 346.00 101.55 340.90 100.41 335.76 99.82 C 332.79 98.83 330.05 97.30 327.72 95.21 Z"
     id="path102" />
  <path
     fill="#4b090b"
     d=" M 596.58 102.39 C 600.88 101.29 605.26 99.62 609.76 100.76 C 591.95 106.49 573.97 111.71 556.06 117.14 C 555.16 117.18 553.34 117.24 552.43 117.27 C 554.78 113.76 559.26 114.00 562.88 112.84 C 568.73 111.11 574.30 108.42 580.34 107.33 C 585.95 106.35 591.08 103.78 596.58 102.39 Z"
     id="path104" />
  <path
     fill="#aa0000"
     d=" M 76.31 123.29 C 81.07 117.64 85.34 111.46 91.10 106.74 C 89.14 110.56 86.36 113.82 83.59 117.06 C 77.95 123.12 73.82 130.34 69.02 137.05 C 60.89 150.24 53.85 164.14 48.64 178.76 C 46.65 184.40 44.00 189.82 42.56 195.65 C 40.84 202.80 38.16 209.71 37.01 217.00 C 35.83 224.65 33.73 232.19 33.49 239.97 C 33.41 244.70 31.76 249.22 31.55 253.94 C 31.23 266.51 31.58 279.08 31.36 291.65 C 28.75 286.86 28.69 281.32 28.62 276.01 C 28.66 267.01 28.41 257.97 29.76 249.04 C 30.58 240.79 33.20 232.68 32.32 224.33 C 32.61 218.35 35.10 212.82 36.27 207.01 C 37.39 201.72 39.40 196.67 40.78 191.44 C 42.66 184.62 45.86 178.27 48.15 171.59 C 52.00 165.15 54.89 158.20 58.40 151.58 C 63.24 141.48 69.98 132.48 76.31 123.29 Z"
     id="path106" />
  <path
     fill="#f27573"
     d=" M 596.26 109.07 C 599.98 107.37 604.72 106.61 608.23 109.22 C 607.07 109.32 604.76 109.54 603.60 109.65 C 604.06 109.71 604.99 109.83 605.45 109.89 C 603.26 111.15 601.10 112.46 598.95 113.79 C 591.77 117.51 586.27 123.59 581.73 130.16 C 577.25 135.89 572.76 141.66 569.09 147.96 C 568.81 147.60 568.24 146.90 567.96 146.55 C 567.34 146.81 566.73 147.06 566.12 147.32 C 565.73 146.62 565.35 145.93 564.97 145.23 C 570.18 135.44 576.50 126.18 584.15 118.13 C 587.77 114.61 591.68 111.25 596.26 109.07 Z"
     id="path108" />
  <path
     fill="#790303"
     d=" M 603.60 109.65 C 604.76 109.54 607.07 109.32 608.23 109.22 C 610.72 110.85 612.83 113.10 613.86 115.94 C 617.62 125.15 616.09 135.22 614.48 144.71 C 613.50 149.52 612.22 154.27 610.31 158.80 L 610.01 158.71 C 609.62 158.64 608.84 158.48 608.45 158.41 C 603.50 163.81 599.48 170.16 593.44 174.47 C 589.44 177.44 585.78 180.98 581.23 183.13 C 572.27 186.80 563.68 191.36 555.34 196.27 C 555.22 196.95 554.97 198.32 554.85 199.00 C 552.85 206.13 551.24 213.37 550.23 220.71 C 549.32 221.77 548.40 222.80 547.48 223.83 C 547.43 222.73 547.40 221.64 547.38 220.54 C 547.46 220.07 547.61 219.14 547.68 218.67 C 548.77 212.61 550.31 206.63 550.95 200.49 C 551.75 197.40 553.39 194.61 555.38 192.14 C 560.74 190.22 565.76 187.49 570.86 184.99 C 576.84 182.18 583.12 179.62 588.16 175.23 C 592.55 170.93 597.16 166.81 600.95 161.95 C 605.58 156.86 609.76 151.19 611.75 144.51 C 614.96 135.65 615.12 125.69 612.40 116.68 C 612.01 115.34 611.64 113.98 611.30 112.64 C 610.99 112.41 610.35 111.97 610.04 111.75 C 608.68 110.75 607.10 110.15 605.45 109.89 C 604.99 109.83 604.06 109.71 603.60 109.65 Z"
     id="path110" />
  <path
     fill="#ff4540"
     d=" M 605.45 109.89 C 607.10 110.15 608.68 110.75 610.04 111.75 C 606.64 113.68 602.71 113.57 598.95 113.79 C 601.10 112.46 603.26 111.15 605.45 109.89 Z"
     id="path112" />
  <path
     fill="#ed0907"
     d=" M 610.04 111.75 C 610.35 111.97 610.99 112.41 611.30 112.64 C 611.64 113.98 612.01 115.34 612.40 116.68 C 611.49 117.93 610.60 119.20 609.71 120.46 C 605.57 119.73 601.11 118.91 597.34 121.33 C 595.05 122.29 592.76 123.21 590.56 124.34 C 587.55 126.19 584.77 128.37 581.73 130.16 C 586.27 123.59 591.77 117.51 598.95 113.79 C 602.71 113.57 606.64 113.68 610.04 111.75 Z"
     id="path114" />
  <path
     fill="#ff615e"
     d=" M 51.62 118.92 C 53.38 118.48 55.14 118.02 56.89 117.56 C 44.29 131.99 33.71 148.15 25.78 165.60 C 21.89 168.36 22.17 174.22 17.68 176.35 C 21.18 165.71 26.09 155.51 32.23 146.13 C 35.44 139.65 40.48 134.38 44.23 128.24 C 46.32 124.85 49.08 121.96 51.62 118.92 Z"
     id="path116" />
  <path
     fill="#670b0d"
     d=" M 69.02 137.05 C 73.82 130.34 77.95 123.12 83.59 117.06 L 85.63 117.00 C 84.24 119.16 82.85 121.34 81.14 123.27 C 73.06 132.58 67.71 143.77 61.40 154.25 C 59.24 158.45 55.82 162.66 56.72 167.69 C 40.13 204.36 31.97 244.80 32.76 285.02 C 33.56 298.18 35.39 311.29 38.72 324.05 L 37.91 326.22 C 37.14 320.62 34.91 315.37 33.82 309.85 C 33.36 303.73 32.00 297.74 31.36 291.65 C 31.58 279.08 31.23 266.51 31.55 253.94 C 31.76 249.22 33.41 244.70 33.49 239.97 C 33.73 232.19 35.83 224.65 37.01 217.00 C 38.16 209.71 40.84 202.80 42.56 195.65 C 44.00 189.82 46.65 184.40 48.64 178.76 C 53.85 164.14 60.89 150.24 69.02 137.05 Z"
     id="path118" />
  <path
     fill="#c10808"
     d=" M 612.40 116.68 C 615.12 125.69 614.96 135.65 611.75 144.51 C 612.63 139.70 613.44 134.35 610.58 130.01 C 610.22 129.22 609.83 128.43 609.47 127.65 C 609.36 126.20 609.29 124.76 609.24 123.31 C 605.63 121.19 601.36 121.43 597.34 121.33 C 601.11 118.91 605.57 119.73 609.71 120.46 C 610.60 119.20 611.49 117.93 612.40 116.68 Z"
     id="path120" />
  <path
     fill="#5e0507"
     d=" M 590.56 124.34 C 592.76 123.21 595.05 122.29 597.34 121.33 C 601.36 121.43 605.63 121.19 609.24 123.31 C 609.29 124.76 609.36 126.20 609.47 127.65 C 603.06 123.17 595.21 127.53 590.01 131.85 C 581.77 139.25 574.02 147.76 569.61 158.05 C 568.32 152.74 572.94 148.88 574.64 144.28 C 576.35 139.23 581.32 136.69 584.57 132.78 C 587.84 128.77 592.36 126.18 596.46 123.15 C 594.47 123.43 592.48 123.76 590.56 124.34 Z"
     id="path122" />
  <path
     fill="#7e0204"
     d=" M 590.56 124.34 C 592.48 123.76 594.47 123.43 596.46 123.15 C 592.36 126.18 587.84 128.77 584.57 132.78 C 581.32 136.69 576.35 139.23 574.64 144.28 C 572.94 148.88 568.32 152.74 569.61 158.05 C 567.86 163.17 565.69 168.14 563.55 173.11 C 562.93 174.33 562.23 175.51 561.58 176.71 C 561.31 176.59 560.76 176.36 560.48 176.25 C 560.36 175.05 560.26 173.85 560.18 172.66 C 563.04 164.40 565.59 155.98 569.09 147.96 C 572.76 141.66 577.25 135.89 581.73 130.16 C 584.77 128.37 587.55 126.19 590.56 124.34 Z"
     id="path124" />
  <path
     fill="#fff5f3"
     d=" M 590.01 131.85 C 595.21 127.53 603.06 123.17 609.47 127.65 C 609.83 128.43 610.22 129.22 610.58 130.01 C 610.61 134.31 610.98 138.79 609.49 142.91 C 607.66 146.99 604.56 150.31 601.51 153.51 C 593.82 160.90 585.03 167.24 575.25 171.56 C 571.76 173.07 568.13 174.39 564.31 174.71 C 564.12 174.31 563.74 173.51 563.55 173.11 C 565.69 168.14 567.86 163.17 569.61 158.05 C 574.02 147.76 581.77 139.25 590.01 131.85 Z"
     id="path126" />
  <path
     fill="#e27d7d"
     d=" M 12.69 188.64 C 17.36 166.11 28.30 145.30 41.85 126.85 C 42.45 127.20 43.64 127.89 44.23 128.24 C 40.48 134.38 35.44 139.65 32.23 146.13 C 26.09 155.51 21.18 165.71 17.68 176.35 C 16.35 180.58 15.46 185.06 12.69 188.64 Z"
     id="path128" />
  <path
     fill="#f47b7a"
     d=" M 610.58 130.01 C 613.44 134.35 612.63 139.70 611.75 144.51 C 609.76 151.19 605.58 156.86 600.95 161.95 C 589.40 170.97 576.27 179.11 561.40 180.70 C 561.45 179.36 561.51 178.04 561.58 176.71 C 562.23 175.51 562.93 174.33 563.55 173.11 C 563.74 173.51 564.12 174.31 564.31 174.71 C 568.13 174.39 571.76 173.07 575.25 171.56 C 585.03 167.24 593.82 160.90 601.51 153.51 C 604.56 150.31 607.66 146.99 609.49 142.91 C 610.98 138.79 610.61 134.31 610.58 130.01 Z"
     id="path132" />
  <path
     fill="#e36061"
     d=" M 556.66 172.73 C 559.56 163.61 561.77 154.26 564.97 145.23 C 565.35 145.93 565.73 146.62 566.12 147.32 C 566.73 147.06 567.34 146.81 567.96 146.55 C 568.24 146.90 568.81 147.60 569.09 147.96 C 565.59 155.98 563.04 164.40 560.18 172.66 C 559.82 174.05 559.67 175.47 559.64 176.90 C 559.02 176.75 557.77 176.44 557.15 176.29 C 557.03 175.40 556.78 173.62 556.66 172.73 Z"
     id="path134" />
  <path
     fill="#fdfdfd"
     d=" M 234.76 157.52 C 248.62 151.36 263.65 146.81 278.95 147.29 C 295.91 146.78 313.41 152.37 325.95 164.05 C 340.97 177.65 348.09 198.17 348.93 218.05 C 349.51 222.79 348.18 227.47 348.36 232.22 C 352.64 226.32 359.33 220.83 367.07 221.72 C 374.71 222.68 378.45 231.10 378.85 237.96 C 378.53 246.42 373.51 253.90 367.59 259.62 C 361.36 266.24 353.97 271.58 346.83 277.14 C 346.62 278.28 346.66 279.46 346.61 280.63 C 355.32 277.11 362.71 270.86 368.72 263.73 C 371.76 260.07 375.20 256.43 376.52 251.75 C 379.53 241.53 384.30 231.82 390.57 223.21 C 394.56 217.79 399.21 212.13 405.77 209.87 C 410.67 207.93 416.34 210.64 418.80 215.08 C 421.69 220.54 421.98 227.06 420.59 233.00 C 419.74 234.34 418.92 235.69 418.06 237.02 C 416.10 239.13 413.57 240.50 410.89 241.45 C 407.30 240.52 405.73 237.25 405.16 233.86 C 405.73 231.96 406.28 230.06 406.79 228.14 C 401.06 235.74 396.24 244.00 392.39 252.70 C 390.40 257.44 388.51 262.40 388.51 267.62 C 400.18 265.06 408.59 255.66 415.64 246.64 C 418.17 243.95 418.81 240.29 419.59 236.82 C 422.99 224.13 429.63 212.26 438.96 202.98 C 443.74 198.65 449.30 194.52 455.91 193.76 C 460.69 193.18 465.43 195.95 467.62 200.17 C 470.32 205.74 470.42 212.14 469.59 218.17 C 474.07 214.54 477.75 209.59 478.67 203.78 C 480.21 202.29 482.05 201.20 483.99 200.30 C 487.55 201.28 490.44 204.10 490.03 208.06 C 492.33 205.72 494.57 203.30 497.16 201.27 C 497.84 201.86 499.20 203.02 499.88 203.61 C 493.37 208.90 487.83 215.47 484.05 222.96 C 483.02 225.22 482.07 227.51 481.19 229.83 C 479.86 230.08 478.53 230.33 477.22 230.59 C 477.73 228.51 478.44 226.45 479.72 224.71 C 475.15 228.23 470.13 231.32 464.49 232.75 C 458.71 246.55 449.68 260.47 435.38 266.47 C 434.21 266.88 433.46 268.24 432.25 268.38 C 428.95 267.47 425.27 267.69 422.54 265.30 L 422.36 264.85 C 420.73 263.25 419.89 261.10 419.04 259.03 C 413.84 264.58 408.36 269.91 402.06 274.21 C 396.45 277.58 389.35 280.96 382.85 278.18 C 380.08 277.14 378.30 274.66 376.20 272.73 C 368.85 280.48 360.32 287.91 349.89 291.01 C 344.13 293.11 337.22 290.29 334.41 284.90 C 333.00 282.10 332.46 278.98 332.06 275.91 C 313.64 307.13 286.15 332.01 256.29 352.07 C 249.98 356.22 243.53 360.15 236.91 363.80 C 223.15 371.34 208.79 377.91 193.86 382.78 C 191.87 383.57 189.84 384.25 187.79 384.86 C 183.23 386.44 178.54 387.58 173.89 388.85 C 170.66 389.80 167.34 390.38 164.09 391.23 C 162.78 391.48 161.48 391.73 160.19 392.07 C 155.67 393.34 150.98 393.68 146.42 394.73 C 141.96 395.69 137.48 396.68 132.90 396.81 C 117.39 399.07 101.24 398.45 86.12 393.99 C 83.02 392.99 80.00 391.70 77.36 389.76 C 76.60 389.80 75.84 389.83 75.09 389.85 C 73.71 389.56 72.34 389.21 70.98 388.88 C 70.17 387.86 69.36 386.83 68.58 385.80 C 68.60 385.67 68.64 385.40 68.66 385.27 C 70.84 381.44 66.36 379.21 65.65 375.77 C 65.95 375.76 66.56 375.75 66.87 375.75 C 68.89 368.84 77.63 365.81 84.03 368.24 C 91.40 370.98 96.13 377.60 100.96 383.43 C 102.08 383.68 103.20 383.96 104.34 384.17 C 120.91 385.69 137.56 383.51 153.69 379.75 C 179.94 373.46 205.56 364.07 229.16 350.87 C 253.37 336.86 275.91 319.54 294.19 298.26 C 309.94 280.09 323.05 258.26 325.88 233.98 C 327.38 221.59 325.65 208.79 320.75 197.30 C 314.96 182.87 303.37 170.44 288.48 165.38 C 280.68 162.47 272.25 162.40 264.04 162.79 C 251.88 164.08 240.59 169.02 229.99 174.89 C 234.31 177.01 236.25 181.53 237.38 185.94 C 237.28 187.95 237.11 189.97 236.58 191.92 C 230.83 215.28 225.01 238.61 219.00 261.89 C 214.27 281.02 210.70 300.45 208.86 320.07 C 208.81 329.80 207.75 339.90 211.18 349.24 C 212.26 351.60 211.22 354.01 210.50 356.30 C 207.50 358.97 202.99 361.59 199.05 359.36 C 196.04 357.72 195.13 354.08 194.16 351.05 C 191.31 339.36 190.70 327.16 191.74 315.20 C 193.11 290.57 197.34 266.20 202.58 242.13 C 203.20 239.88 202.09 237.76 201.26 235.75 C 197.79 227.55 195.63 218.83 194.44 210.02 C 193.37 201.18 195.41 191.89 200.79 184.71 C 208.90 172.33 221.37 163.44 234.76 157.52 Z"
     id="path136" />
  <path
     fill="#010101"
     d=" M 240.14 159.15 C 254.88 152.72 271.07 149.69 287.15 150.88 C 289.09 151.39 291.09 151.65 293.10 151.82 C 307.26 154.64 320.84 161.84 329.75 173.40 C 337.19 182.85 341.95 194.32 344.02 206.13 C 345.11 213.02 345.88 220.02 345.12 227.00 C 344.29 231.31 344.02 235.72 343.07 240.03 C 342.76 241.06 342.47 242.10 342.19 243.14 C 340.30 249.88 337.92 256.49 334.93 262.83 C 325.12 283.46 310.50 301.44 294.12 317.21 C 259.64 350.34 216.58 374.60 170.14 386.20 C 167.44 386.89 164.71 387.47 161.97 387.95 C 160.64 388.37 159.28 388.68 157.92 388.97 C 152.93 390.07 147.84 390.66 142.86 391.81 C 136.95 393.10 130.92 393.73 124.87 393.81 C 121.00 394.82 116.97 394.38 113.02 394.48 C 102.16 393.87 91.00 392.92 81.09 388.00 C 76.19 385.34 71.45 381.38 70.39 375.60 C 73.26 371.62 78.77 369.96 83.32 371.91 C 89.29 374.43 93.30 379.84 97.19 384.78 C 98.08 385.62 98.99 386.44 99.90 387.27 C 106.26 387.71 112.60 388.79 118.99 388.33 C 124.01 387.90 129.04 387.58 134.05 387.09 C 143.82 385.62 153.46 383.50 163.07 381.23 C 181.61 376.02 199.87 369.62 217.22 361.19 C 242.08 349.11 264.80 332.84 284.80 313.81 C 293.06 305.34 301.02 296.55 307.81 286.84 C 317.68 272.84 325.56 257.05 328.63 240.09 C 332.40 221.48 328.70 201.52 318.66 185.42 C 310.82 172.68 297.79 163.03 283.02 160.14 C 269.84 157.37 256.00 159.39 243.57 164.31 C 233.93 168.56 224.09 173.08 216.47 180.55 C 212.50 184.24 209.24 188.64 206.66 193.40 C 203.78 198.34 203.84 204.50 205.13 209.90 C 205.77 216.13 207.74 222.12 209.09 228.21 C 212.77 213.32 215.91 198.28 219.96 183.48 C 220.54 181.64 220.41 179.29 222.21 178.11 C 223.53 176.82 225.59 177.56 227.23 177.34 C 231.85 179.57 234.43 184.87 233.47 189.88 C 228.74 208.76 224.03 227.65 219.30 246.52 C 215.69 259.61 212.53 272.82 210.08 286.17 C 209.64 288.06 209.33 289.97 208.90 291.86 C 207.34 303.87 204.88 315.86 205.27 328.03 C 205.13 336.15 205.03 344.55 208.48 352.10 C 207.72 353.22 206.95 354.32 206.18 355.44 C 204.13 356.16 201.30 357.68 199.79 355.21 C 197.30 350.98 196.72 345.99 195.91 341.24 C 195.23 332.82 194.25 324.34 195.48 315.91 C 195.73 306.42 196.91 297.00 197.96 287.56 C 199.99 274.34 202.09 261.10 205.02 248.03 C 205.48 245.34 206.16 242.69 206.64 240.01 C 205.93 236.82 204.19 233.95 203.21 230.84 C 201.47 225.71 199.88 220.52 198.87 215.19 C 197.84 209.13 197.10 202.90 198.84 196.89 C 199.14 195.90 199.43 194.90 199.71 193.91 C 207.48 177.14 223.38 165.84 240.14 159.15 Z"
     id="path138" />
  <path
     fill="#4b0506"
     d=" M 608.45 158.41 C 608.84 158.48 609.62 158.64 610.01 158.71 C 606.08 166.19 600.16 172.35 593.85 177.86 C 586.11 184.43 576.77 188.59 567.78 193.10 C 563.54 195.23 559.17 197.06 554.85 199.00 C 554.97 198.32 555.22 196.95 555.34 196.27 C 563.68 191.36 572.27 186.80 581.23 183.13 C 585.78 180.98 589.44 177.44 593.44 174.47 C 599.48 170.16 603.50 163.81 608.45 158.41 Z"
     id="path140" />
  <path
     fill="#fff6f4"
     d=" M 610.01 158.71 L 610.31 158.80 C 610.95 159.31 612.25 160.32 612.89 160.83 C 605.53 174.33 593.12 184.69 579.41 191.35 C 572.31 194.97 565.17 198.52 557.86 201.70 C 556.33 207.08 555.03 212.56 554.44 218.14 C 564.99 221.90 575.05 228.39 580.94 238.16 C 588.31 250.11 589.02 265.34 584.49 278.46 C 582.15 286.39 577.13 293.48 570.56 298.49 C 559.76 307.32 546.66 312.55 533.99 318.05 C 531.13 320.32 532.53 324.63 532.45 327.78 C 534.67 336.08 541.08 342.21 546.58 348.46 C 552.65 354.22 559.06 359.60 565.46 364.99 C 566.86 369.79 563.69 374.24 560.51 377.49 C 555.44 382.47 547.64 383.11 541.02 381.56 C 531.67 379.70 523.01 375.53 513.85 373.03 C 508.25 371.91 502.62 370.93 497.02 369.83 C 489.01 369.03 481.03 367.98 473.00 367.50 C 466.66 367.50 460.33 367.54 454.00 367.51 C 424.97 368.48 396.27 375.61 369.89 387.72 C 327.64 407.16 291.12 438.25 263.61 475.61 C 261.86 477.89 256.95 477.21 257.15 473.79 C 257.88 469.66 261.09 466.52 262.85 462.80 C 270.05 451.58 277.99 440.83 286.83 430.83 C 300.71 414.95 316.96 401.15 334.70 389.74 C 369.36 367.28 410.01 355.13 450.97 351.54 C 469.69 350.48 488.95 349.42 507.15 354.84 C 509.16 355.49 511.19 356.13 513.20 356.80 C 515.24 357.59 517.32 358.30 519.37 359.09 C 517.46 359.65 515.55 360.23 513.62 360.70 C 512.32 360.31 511.02 359.92 509.73 359.54 C 503.16 356.79 496.07 355.40 489.02 354.66 C 470.49 353.76 451.85 354.11 433.52 357.16 C 400.76 362.04 368.75 372.93 340.54 390.43 C 318.46 403.82 298.83 421.16 282.69 441.31 C 280.09 444.41 277.55 447.60 275.91 451.33 C 271.09 457.33 266.97 463.84 262.73 470.25 C 268.96 462.68 275.00 454.91 281.89 447.91 C 288.57 439.95 296.45 433.16 304.15 426.23 C 334.78 399.45 371.42 379.05 411.14 369.64 C 446.58 361.26 484.04 361.73 519.28 370.85 C 520.89 371.39 522.50 371.96 524.14 372.47 C 533.08 375.43 542.23 379.95 551.89 378.26 C 557.18 377.02 560.45 372.51 562.66 367.88 C 562.25 367.45 561.86 367.04 561.47 366.63 C 556.80 362.16 551.85 358.00 546.89 353.87 C 544.04 351.04 541.16 348.23 538.63 345.11 C 536.25 342.18 533.96 339.16 531.93 335.99 C 530.77 333.45 529.68 330.90 528.53 328.36 C 528.36 324.83 528.38 321.24 529.36 317.81 C 530.36 316.24 531.63 314.79 533.47 314.20 C 546.74 308.68 560.43 303.03 571.15 293.16 C 577.62 287.13 581.42 278.69 582.86 270.05 C 584.23 261.79 584.02 252.97 580.49 245.24 C 577.89 238.91 573.26 233.75 568.17 229.31 C 562.81 225.32 556.62 222.56 550.23 220.71 C 551.24 213.37 552.85 206.13 554.85 199.00 C 559.17 197.06 563.54 195.23 567.78 193.10 C 576.77 188.59 586.11 184.43 593.85 177.86 C 600.16 172.35 606.08 166.19 610.01 158.71 Z"
     id="path142" />
  <path
     fill="#de1116"
     d=" M 561.40 180.70 C 576.27 179.11 589.40 170.97 600.95 161.95 C 597.16 166.81 592.55 170.93 588.16 175.23 C 583.12 179.62 576.84 182.18 570.86 184.99 C 572.53 182.98 574.29 181.05 576.23 179.30 C 571.39 180.26 566.20 183.35 561.40 180.70 Z"
     id="path144" />
  <path
     fill="#fa5050"
     d=" M 17.68 176.35 C 22.17 174.22 21.89 168.36 25.78 165.60 C 22.38 176.24 18.25 186.71 16.17 197.73 C 12.78 203.32 12.10 209.90 10.48 216.11 C 10.33 212.64 10.11 209.17 10.05 205.69 C 10.70 200.46 12.49 195.42 12.48 190.11 C 12.54 189.62 12.60 189.13 12.69 188.64 C 15.46 185.06 16.35 180.58 17.68 176.35 Z"
     id="path146" />
  <path
     fill="#db8386"
     d=" M 553.82 176.86 C 555.54 176.17 556.02 174.28 556.66 172.73 C 556.78 173.62 557.03 175.40 557.15 176.29 C 552.56 182.67 544.14 182.34 537.71 185.67 C 525.87 190.51 514.51 196.51 503.71 203.35 C 500.71 205.79 498.52 209.07 495.47 211.47 C 491.01 214.97 488.24 220.00 484.54 224.20 L 484.05 222.96 C 487.83 215.47 493.37 208.90 499.88 203.61 C 510.97 194.68 523.92 188.41 537.20 183.45 C 542.75 181.30 548.54 179.66 553.82 176.86 Z"
     id="path148" />
  <path
     fill="#f10606"
     d=" M 559.64 176.90 C 559.67 175.47 559.82 174.05 560.18 172.66 C 560.26 173.85 560.36 175.05 560.48 176.25 C 560.76 176.36 561.31 176.59 561.58 176.71 C 561.51 178.04 561.45 179.36 561.40 180.70 C 566.20 183.35 571.39 180.26 576.23 179.30 C 574.29 181.05 572.53 182.98 570.86 184.99 C 565.76 187.49 560.74 190.22 555.38 192.14 C 540.81 197.99 524.94 201.86 512.48 211.88 C 503.99 217.99 495.95 225.06 490.26 233.93 C 488.74 233.85 487.23 233.76 485.73 233.68 C 487.44 228.25 490.50 223.42 493.41 218.57 C 504.20 204.58 520.35 196.07 536.53 189.82 C 543.84 186.71 551.77 184.83 558.52 180.54 C 559.97 179.86 559.45 178.16 559.64 176.90 Z"
     id="path150" />
  <path
     fill="#ff7370"
     d=" M 557.15 176.29 C 557.77 176.44 559.02 176.75 559.64 176.90 C 559.45 178.16 559.97 179.86 558.52 180.54 C 551.77 184.83 543.84 186.71 536.53 189.82 C 520.35 196.07 504.20 204.58 493.41 218.57 C 489.61 220.38 487.82 224.20 486.16 227.81 C 485.61 226.61 485.05 225.41 484.54 224.20 C 488.24 220.00 491.01 214.97 495.47 211.47 C 498.52 209.07 500.71 205.79 503.71 203.35 C 514.51 196.51 525.87 190.51 537.71 185.67 C 544.14 182.34 552.56 182.67 557.15 176.29 Z"
     id="path152" />
  <path
     fill="#e48284"
     d=" M 10.92 194.49 C 11.31 192.98 11.90 191.54 12.48 190.11 C 12.49 195.42 10.70 200.46 10.05 205.69 C 9.20 211.14 8.36 216.59 8.09 222.11 C 6.19 230.89 5.89 239.99 6.02 248.96 C 5.99 254.07 5.66 259.24 6.63 264.30 C 7.22 270.34 8.09 276.40 7.59 282.48 C 5.50 270.81 5.65 258.85 5.59 247.03 C 5.26 229.38 7.29 211.74 10.92 194.49 Z"
     id="path156" />
  <path
     fill="#b10307"
     d=" M 512.48 211.88 C 524.94 201.86 540.81 197.99 555.38 192.14 C 553.39 194.61 551.75 197.40 550.95 200.49 C 550.22 200.84 549.51 201.17 548.79 201.50 C 548.60 200.51 548.23 198.51 548.04 197.52 C 541.63 197.45 536.05 200.96 530.21 203.10 C 524.00 205.43 518.89 210.00 512.48 211.88 Z"
     id="path158" />
  <path
     fill="#f83c3d"
     d=" M 10.48 216.11 C 12.10 209.90 12.78 203.32 16.17 197.73 C 14.35 209.67 12.30 221.58 11.68 233.67 C 9.90 244.02 10.76 254.56 10.47 265.01 C 10.81 277.52 12.47 289.96 13.13 302.46 C 10.83 292.78 10.01 282.85 8.66 273.01 C 8.08 261.73 8.31 250.43 8.33 239.14 C 8.11 239.40 7.68 239.92 7.47 240.18 C 7.51 234.15 8.99 228.15 8.09 222.11 C 8.36 216.59 9.20 211.14 10.05 205.69 C 10.11 209.17 10.33 212.64 10.48 216.11 Z"
     id="path160" />
  <path
     fill="#020202"
     d=" M 440.04 207.04 C 444.92 202.31 450.84 197.26 458.05 197.39 C 462.41 197.58 465.06 202.01 465.82 205.89 C 467.67 212.26 465.52 218.76 463.96 224.95 C 468.42 223.10 472.79 220.71 476.02 217.04 C 479.49 213.51 481.00 208.71 482.81 204.23 C 484.95 203.93 486.93 205.72 486.33 207.96 C 483.17 218.52 473.78 226.36 463.43 229.43 C 462.10 229.63 461.41 230.72 460.78 231.77 C 457.06 241.71 450.91 250.95 442.87 257.94 C 438.50 261.02 433.51 264.44 427.92 264.07 C 422.40 262.23 421.91 255.63 421.15 250.77 C 413.59 259.59 405.75 268.84 395.03 273.90 C 391.59 275.10 387.61 276.53 384.11 274.74 C 380.30 273.02 378.60 268.90 378.01 265.00 C 373.62 271.20 367.80 276.20 361.80 280.78 C 357.09 284.24 351.87 287.38 345.96 288.15 C 341.30 288.30 337.20 284.49 336.47 279.97 C 335.03 275.33 336.18 270.52 336.78 265.85 C 339.78 253.60 344.87 241.58 353.17 231.94 C 357.02 227.85 362.26 224.03 368.22 225.54 C 372.34 227.33 373.94 231.97 375.28 235.90 C 375.28 237.31 375.31 238.73 375.33 240.14 C 374.52 242.38 373.75 244.64 372.95 246.88 C 369.13 253.47 363.65 258.92 357.86 263.79 C 352.97 267.42 348.65 271.86 343.24 274.74 C 343.35 277.61 342.49 281.04 344.46 283.45 C 346.58 284.17 348.87 283.72 350.88 282.88 C 362.19 277.06 371.38 267.73 378.21 257.10 C 378.49 256.64 379.06 255.71 379.34 255.24 C 379.44 254.65 379.63 253.46 379.73 252.87 C 383.34 242.07 388.48 231.71 395.41 222.64 C 398.66 218.99 402.05 214.98 406.80 213.32 C 410.71 211.75 415.11 214.58 416.35 218.35 C 418.59 224.22 418.52 231.80 413.72 236.41 C 412.49 236.87 411.25 237.26 409.99 237.59 C 409.61 236.33 409.23 235.09 408.83 233.85 C 409.97 229.33 413.11 224.80 411.47 220.03 C 406.98 222.49 403.35 226.24 400.60 230.52 C 394.53 239.68 389.06 249.42 385.89 260.00 C 385.43 263.33 384.07 267.57 386.59 270.38 C 391.35 271.86 395.87 269.23 399.84 266.93 C 408.19 261.84 414.59 254.30 420.26 246.46 C 422.17 244.05 422.10 240.83 422.86 237.98 C 426.00 226.47 431.98 215.82 440.04 207.04 Z"
     id="path162" />
  <path
     fill="#8e0203"
     d=" M 530.21 203.10 C 536.05 200.96 541.63 197.45 548.04 197.52 C 548.23 198.51 548.60 200.51 548.79 201.50 C 548.50 201.62 547.92 201.85 547.63 201.97 L 546.56 202.31 C 546.49 201.52 546.34 199.93 546.27 199.13 C 541.15 200.07 536.63 202.75 531.75 204.39 C 526.27 206.21 521.63 209.72 516.71 212.60 C 511.44 215.86 506.06 219.26 502.27 224.27 C 499.08 228.40 494.64 231.56 492.30 236.32 C 489.90 241.20 487.92 246.53 488.51 252.07 C 485.61 265.19 489.64 279.01 497.53 289.65 C 498.91 292.06 500.54 294.33 502.42 296.39 C 497.28 292.01 493.79 286.22 490.68 280.32 C 485.37 272.12 483.31 262.27 482.68 252.65 C 482.83 251.54 483.00 250.44 483.20 249.35 C 485.29 244.10 487.53 238.89 490.26 233.93 C 495.95 225.06 503.99 217.99 512.48 211.88 C 518.89 210.00 524.00 205.43 530.21 203.10 Z"
     id="path164" />
  <path
     fill="#470908"
     d=" M 531.75 204.39 C 536.63 202.75 541.15 200.07 546.27 199.13 C 546.34 199.93 546.49 201.52 546.56 202.31 C 531.39 206.91 517.05 214.62 505.24 225.24 C 497.43 232.51 491.03 241.57 488.51 252.07 C 487.92 246.53 489.90 241.20 492.30 236.32 C 494.64 231.56 499.08 228.40 502.27 224.27 C 506.06 219.26 511.44 215.86 516.71 212.60 C 521.63 209.72 526.27 206.21 531.75 204.39 Z"
     id="path166" />
  <path
     fill="#d9565c"
     d=" M 548.79 201.50 C 549.51 201.17 550.22 200.84 550.95 200.49 C 550.31 206.63 548.77 212.61 547.68 218.67 C 546.55 218.89 545.43 219.12 544.31 219.31 C 545.73 213.60 547.44 207.89 547.63 201.97 C 547.92 201.85 548.50 201.62 548.79 201.50 Z"
     id="path168" />
  <path
     fill="#fff4f2"
     d=" M 505.24 225.24 C 517.05 214.62 531.39 206.91 546.56 202.31 L 547.63 201.97 C 547.44 207.89 545.73 213.60 544.31 219.31 L 543.98 219.35 C 526.49 219.30 508.47 228.77 500.98 245.00 C 497.45 252.95 494.20 262.31 498.12 270.75 C 498.36 271.35 498.63 271.94 498.95 272.52 C 500.72 276.15 503.27 279.29 505.91 282.32 C 506.38 282.30 507.32 282.26 507.79 282.24 C 507.13 280.87 506.47 279.50 505.83 278.13 C 503.69 274.00 502.85 269.40 502.50 264.81 C 503.27 255.68 507.51 246.43 515.30 241.25 C 521.76 236.76 530.04 236.11 537.65 236.97 C 538.19 237.15 539.27 237.51 539.82 237.69 C 539.77 239.76 539.55 241.83 539.16 243.86 C 535.31 260.11 531.73 276.43 528.02 292.72 C 526.94 296.60 525.96 300.50 525.24 304.47 C 524.77 304.49 523.82 304.53 523.35 304.56 C 518.51 304.29 514.05 302.18 509.82 299.99 C 505.17 297.24 501.36 293.40 497.53 289.65 C 489.64 279.01 485.61 265.19 488.51 252.07 C 491.03 241.57 497.43 232.51 505.24 225.24 Z"
     id="path170" />
  <path
     fill="#fdfdfd"
     d=" M 444.46 209.55 C 446.92 206.48 451.13 203.88 455.17 205.16 C 457.56 205.65 458.53 208.12 459.27 210.16 C 460.71 215.49 459.22 220.99 458.21 226.25 C 456.43 226.21 454.66 226.19 452.89 226.17 C 448.88 225.37 444.94 223.63 442.60 220.13 C 442.27 216.55 441.96 212.49 444.46 209.55 Z"
     id="path172" />
  <path
     fill="#fdfdfd"
     d=" M 437.01 217.79 C 438.40 220.71 439.25 224.10 441.97 226.14 C 444.38 228.55 447.76 229.36 450.91 230.34 C 452.84 230.45 454.77 230.51 456.71 230.61 C 450.87 241.34 444.70 253.76 432.64 258.51 C 429.93 256.04 429.24 252.37 429.07 248.88 C 428.61 246.97 428.59 245.01 429.13 243.13 C 429.30 237.25 430.94 231.54 433.07 226.09 C 434.22 223.25 435.56 220.49 437.01 217.79 Z"
     id="path178" />
  <path
     fill="#ff6b65"
     d=" M 544.31 219.31 C 545.43 219.12 546.55 218.89 547.68 218.67 C 547.61 219.14 547.46 220.07 547.38 220.54 C 546.36 222.12 545.27 223.63 544.16 225.14 C 538.33 225.29 532.40 225.76 527.13 228.50 C 524.72 229.53 522.35 230.66 520.08 231.96 C 521.84 226.49 527.83 225.26 532.61 223.65 C 536.49 222.29 540.62 222.16 544.67 221.81 C 544.43 220.99 544.20 220.16 543.98 219.35 L 544.31 219.31 Z"
     id="path180" />
  <path
     fill="#f35654"
     d=" M 486.16 227.81 C 487.82 224.20 489.61 220.38 493.41 218.57 C 490.50 223.42 487.44 228.25 485.73 233.68 C 485.05 235.63 484.39 237.59 483.73 239.54 C 482.38 242.60 481.55 245.85 481.35 249.19 C 480.69 249.60 480.04 250.01 479.40 250.43 C 478.67 249.55 477.94 248.68 477.22 247.81 C 477.44 241.64 479.11 235.62 481.19 229.83 C 482.07 227.51 483.02 225.22 484.05 222.96 L 484.54 224.20 C 485.05 225.41 485.61 226.61 486.16 227.81 Z"
     id="path182" />
  <path
     fill="#e97c7c"
     d=" M 500.98 245.00 C 508.47 228.77 526.49 219.30 543.98 219.35 C 544.20 220.16 544.43 220.99 544.67 221.81 C 540.62 222.16 536.49 222.29 532.61 223.65 C 527.83 225.26 521.84 226.49 520.08 231.96 L 519.40 232.41 C 513.97 235.53 508.81 239.38 505.57 244.88 C 504.34 245.67 503.09 246.42 501.85 247.18 C 501.63 246.63 501.20 245.54 500.98 245.00 Z"
     id="path184" />
  <path
     fill="#f33d3f"
     d=" M 544.16 225.14 C 545.27 223.63 546.36 222.12 547.38 220.54 C 547.40 221.64 547.43 222.73 547.48 223.83 C 548.40 222.80 549.32 221.77 550.23 220.71 C 556.62 222.56 562.81 225.32 568.17 229.31 C 570.66 232.66 572.06 236.77 575.31 239.56 C 571.85 236.87 567.64 235.44 564.09 232.90 C 559.96 229.88 555.01 228.43 550.34 226.51 C 549.21 225.99 548.09 225.42 546.99 224.87 C 546.28 224.94 544.87 225.08 544.16 225.14 Z"
     id="path186" />
  <path
     fill="#cb5054"
     d=" M 6.02 248.96 C 5.89 239.99 6.19 230.89 8.09 222.11 C 8.99 228.15 7.51 234.15 7.47 240.18 C 7.04 248.22 7.95 256.31 6.63 264.30 C 5.66 259.24 5.99 254.07 6.02 248.96 Z"
     id="path188" />
  <path
     fill="#c50101"
     d=" M 30.23 233.97 C 30.57 230.68 31.40 227.49 32.32 224.33 C 33.20 232.68 30.58 240.79 29.76 249.04 C 28.41 257.97 28.66 267.01 28.62 276.01 C 28.69 281.32 28.75 286.86 31.36 291.65 C 32.00 297.74 33.36 303.73 33.82 309.85 C 34.91 315.37 37.14 320.62 37.91 326.22 C 39.83 338.46 45.91 349.47 51.00 360.62 C 50.63 361.18 49.89 362.32 49.52 362.89 C 48.50 360.46 47.50 358.03 46.21 355.73 C 43.14 350.64 41.26 344.96 38.16 339.88 C 33.36 323.92 27.83 307.85 27.25 291.02 C 26.29 281.02 26.52 270.95 27.29 260.95 C 27.16 251.86 29.19 242.95 30.23 233.97 Z"
     id="path190" />
  <path
     fill="#dd110e"
     d=" M 527.13 228.50 C 532.40 225.76 538.33 225.29 544.16 225.14 C 544.87 225.08 546.28 224.94 546.99 224.87 C 548.09 225.42 549.21 225.99 550.34 226.51 C 545.19 226.61 540.07 227.35 535.08 228.60 C 539.30 229.66 543.46 230.95 547.55 232.45 C 544.28 232.60 541.11 231.79 537.94 231.15 C 534.31 230.38 530.15 231.11 527.13 228.50 Z"
     id="path192" />
  <path
     fill="#f70303"
     d=" M 535.08 228.60 C 540.07 227.35 545.19 226.61 550.34 226.51 C 555.01 228.43 559.96 229.88 564.09 232.90 C 567.64 235.44 571.85 236.87 575.31 239.56 C 575.62 246.11 578.01 252.46 577.31 259.07 C 576.69 265.77 576.17 272.74 572.82 278.75 C 571.94 278.10 571.06 277.46 570.19 276.82 C 571.92 271.59 571.91 265.72 568.87 260.96 C 568.44 263.72 568.10 266.50 567.85 269.29 C 567.91 264.84 566.96 260.48 566.00 256.17 C 565.87 256.63 565.60 257.55 565.46 258.01 C 565.45 257.74 565.42 257.20 565.41 256.93 C 565.95 251.05 562.82 245.77 559.91 240.95 C 556.46 237.34 552.52 233.69 547.55 232.45 C 543.46 230.95 539.30 229.66 535.08 228.60 Z"
     id="path196" />
  <path
     fill="#bc0607"
     d=" M 520.08 231.96 C 522.35 230.66 524.72 229.53 527.13 228.50 C 530.15 231.11 534.31 230.38 537.94 231.15 C 541.11 231.79 544.28 232.60 547.55 232.45 C 552.52 233.69 556.46 237.34 559.91 240.95 C 562.82 245.77 565.95 251.05 565.41 256.93 C 564.13 254.65 562.72 252.44 561.08 250.41 C 558.57 247.15 555.52 244.37 552.37 241.75 C 553.03 241.96 554.36 242.39 555.03 242.60 C 552.55 239.42 549.49 236.77 546.18 234.49 C 545.56 234.95 544.32 235.87 543.71 236.33 C 543.10 236.49 542.49 236.63 541.89 236.76 C 540.48 235.30 539.27 233.27 537.07 233.00 C 531.24 231.95 525.29 232.77 519.40 232.41 L 520.08 231.96 Z"
     id="path198" />
  <path
     fill="#a50302"
     d=" M 568.17 229.31 C 573.26 233.75 577.89 238.91 580.49 245.24 C 584.02 252.97 584.23 261.79 582.86 270.05 C 582.52 265.02 582.58 259.98 582.65 254.94 C 581.39 264.74 581.53 275.88 574.47 283.63 C 570.52 289.50 564.95 294.34 558.31 296.90 C 559.98 295.11 561.64 293.31 563.39 291.60 C 563.80 291.20 564.62 290.39 565.03 289.99 C 571.39 284.91 575.99 277.62 577.47 269.60 C 578.66 264.21 578.11 258.67 578.78 253.23 C 579.53 248.46 577.71 243.60 575.31 239.56 C 572.06 236.77 570.66 232.66 568.17 229.31 Z"
     id="path202" />
  <path
     fill="#fff2ed"
     d=" M 477.22 230.59 C 478.53 230.33 479.86 230.08 481.19 229.83 C 479.11 235.62 477.44 241.64 477.22 247.81 C 477.25 256.31 476.35 265.11 479.27 273.28 C 480.13 276.47 481.24 279.62 482.81 282.54 C 486.65 290.87 492.64 298.28 500.19 303.51 C 506.32 308.10 513.37 311.26 520.60 313.71 C 520.93 314.40 521.27 315.10 521.62 315.81 L 521.78 316.20 C 522.70 323.91 518.53 332.14 522.51 339.39 C 524.32 343.63 527.63 346.97 530.96 350.07 C 537.25 355.87 544.59 360.32 551.65 365.11 C 552.51 366.06 553.37 367.03 554.23 368.01 C 553.04 369.69 551.72 371.27 550.23 372.70 C 547.67 372.48 545.10 372.30 542.57 371.88 C 532.63 368.96 523.33 364.28 513.62 360.70 C 515.55 360.23 517.46 359.65 519.37 359.09 C 523.30 360.63 527.24 362.17 531.15 363.79 C 536.26 366.19 541.65 367.89 547.12 369.27 C 547.98 368.90 548.86 368.57 549.68 368.10 C 541.72 362.93 533.67 357.75 526.73 351.22 C 523.35 347.71 519.90 343.93 518.53 339.13 C 516.01 331.89 518.45 324.22 518.37 316.82 C 513.04 315.04 507.86 312.78 503.03 309.89 C 488.75 301.65 478.42 287.17 474.95 271.08 C 472.61 261.88 472.68 252.25 473.93 242.90 C 474.77 238.79 475.78 234.72 476.83 230.66 L 477.22 230.59 Z"
     id="path204" />
  <path
     fill="#fefefe"
     d=" M 360.10 237.08 C 362.38 234.87 364.30 231.46 367.80 231.25 C 370.36 234.72 370.90 239.25 369.20 243.22 C 364.28 254.66 353.71 262.14 344.16 269.51 C 346.73 257.66 352.34 246.40 360.10 237.08 Z"
     id="path206" />
  <path
     fill="#610406"
     d=" M 519.40 232.41 C 525.29 232.77 531.24 231.95 537.07 233.00 C 539.27 233.27 540.48 235.30 541.89 236.76 C 540.83 236.81 538.71 236.92 537.65 236.97 C 530.04 236.11 521.76 236.76 515.30 241.25 C 507.51 246.43 503.27 255.68 502.50 264.81 C 500.06 258.24 503.97 252.03 505.14 245.69 C 505.25 245.49 505.46 245.08 505.57 244.88 C 508.81 239.38 513.97 235.53 519.40 232.41 Z"
     id="path208" />
  <path
     fill="#fa1617"
     d=" M 10.47 265.01 C 10.76 254.56 9.90 244.02 11.68 233.67 C 12.39 240.10 12.25 246.58 12.05 253.04 C 11.59 265.65 13.49 278.17 14.55 290.69 C 16.37 299.33 16.29 308.35 19.45 316.68 C 21.16 321.18 20.30 326.02 19.99 330.67 C 18.45 327.41 17.17 324.01 16.50 320.45 C 15.31 314.47 13.68 308.55 13.13 302.46 C 12.47 289.96 10.81 277.52 10.47 265.01 Z"
     id="path210" />
  <path
     fill="#dc0e13"
     d=" M 485.73 233.68 C 487.23 233.76 488.74 233.85 490.26 233.93 C 487.53 238.89 485.29 244.10 483.20 249.35 C 483.51 246.09 483.53 242.81 483.73 239.54 C 484.39 237.59 485.05 235.63 485.73 233.68 Z"
     id="path212" />
  <path
     fill="#770809"
     d=" M 543.71 236.33 C 544.32 235.87 545.56 234.95 546.18 234.49 C 549.49 236.77 552.55 239.42 555.03 242.60 C 554.36 242.39 553.03 241.96 552.37 241.75 C 550.35 240.48 548.16 239.53 545.87 238.91 C 542.87 245.90 542.20 253.54 540.86 260.95 C 538.27 274.51 536.09 288.15 533.58 301.72 C 533.36 302.57 532.93 304.26 532.71 305.11 C 532.09 303.41 531.11 301.70 531.47 299.83 C 532.57 291.69 534.98 283.73 535.20 275.48 C 537.98 262.42 539.82 249.12 543.71 236.33 Z"
     id="path214" />
  <path
     fill="#d75c5d"
     d=" M 541.89 236.76 C 542.49 236.63 543.10 236.49 543.71 236.33 C 539.82 249.12 537.98 262.42 535.20 275.48 C 533.35 281.53 532.65 287.83 531.18 293.97 C 529.99 298.93 529.16 303.97 528.65 309.04 C 527.86 307.39 526.54 305.91 526.22 304.09 C 526.63 300.27 527.61 296.54 528.02 292.72 C 531.73 276.43 535.31 260.11 539.16 243.86 C 539.55 241.83 539.77 239.76 539.82 237.69 C 539.27 237.51 538.19 237.15 537.65 236.97 C 538.71 236.92 540.83 236.81 541.89 236.76 Z"
     id="path218" />
  <path
     fill="#c42e2d"
     d=" M 8.33 239.14 C 8.31 250.43 8.08 261.73 8.66 273.01 C 10.01 282.85 10.83 292.78 13.13 302.46 C 13.68 308.55 15.31 314.47 16.50 320.45 C 17.17 324.01 18.45 327.41 19.99 330.67 C 20.78 338.76 24.88 345.88 27.50 353.42 C 29.62 359.49 33.51 364.68 36.40 370.36 C 36.37 371.38 36.31 373.41 36.28 374.42 C 27.82 361.74 22.45 347.30 17.92 332.83 C 12.87 316.42 9.82 299.48 7.59 282.48 C 8.09 276.40 7.22 270.34 6.63 264.30 C 7.95 256.31 7.04 248.22 7.47 240.18 C 7.68 239.92 8.11 239.40 8.33 239.14 Z"
     id="path220" />
  <path
     fill="#fff5ef"
     d=" M 545.87 238.91 C 548.16 239.53 550.35 240.48 552.37 241.75 C 555.52 244.37 558.57 247.15 561.08 250.41 C 563.71 256.24 566.19 262.43 565.55 268.97 C 564.51 282.17 556.39 294.25 545.50 301.49 C 541.98 303.95 537.79 305.09 533.61 305.81 C 533.61 304.79 533.59 302.75 533.58 301.72 C 536.09 288.15 538.27 274.51 540.86 260.95 C 542.20 253.54 542.87 245.90 545.87 238.91 Z"
     id="path222" />
  <path
     fill="#f33233"
     d=" M 481.35 249.19 C 481.55 245.85 482.38 242.60 483.73 239.54 C 483.53 242.81 483.51 246.09 483.20 249.35 C 483.00 250.44 482.83 251.54 482.68 252.65 C 481.85 256.59 482.29 260.70 481.45 264.62 C 479.97 267.28 479.07 270.19 479.27 273.28 C 476.35 265.11 477.25 256.31 477.22 247.81 C 477.94 248.68 478.67 249.55 479.40 250.43 C 480.04 250.01 480.69 249.60 481.35 249.19 Z"
     id="path224" />
  <path
     fill="#df1617"
     d=" M 575.31 239.56 C 577.71 243.60 579.53 248.46 578.78 253.23 C 578.11 258.67 578.66 264.21 577.47 269.60 C 575.99 277.62 571.39 284.91 565.03 289.99 C 565.84 288.21 566.57 286.41 567.28 284.60 C 568.34 282.04 569.42 279.49 570.19 276.82 C 571.06 277.46 571.94 278.10 572.82 278.75 C 576.17 272.74 576.69 265.77 577.31 259.07 C 578.01 252.46 575.62 246.11 575.31 239.56 Z"
     id="path226" />
  <path
     fill="#c8565c"
     d=" M 498.12 270.75 C 494.20 262.31 497.45 252.95 500.98 245.00 C 501.20 245.54 501.63 246.63 501.85 247.18 C 503.09 246.42 504.34 245.67 505.57 244.88 C 505.46 245.08 505.25 245.49 505.14 245.69 C 502.79 249.72 500.97 254.04 499.90 258.58 C 498.77 262.54 498.11 266.62 498.12 270.75 Z"
     id="path230" />
  <path
     fill="#a20201"
     d=" M 499.90 258.58 C 500.97 254.04 502.79 249.72 505.14 245.69 C 503.97 252.03 500.06 258.24 502.50 264.81 C 502.85 269.40 503.69 274.00 505.83 278.13 C 504.80 276.02 503.71 273.81 501.69 272.47 C 500.86 267.88 500.22 263.24 499.90 258.58 Z"
     id="path232" />
  <path
     fill="#ed777a"
     d=" M 561.08 250.41 C 562.72 252.44 564.13 254.65 565.41 256.93 C 565.42 257.20 565.45 257.74 565.46 258.01 C 565.87 263.88 566.75 269.82 565.63 275.67 C 564.59 280.94 563.85 286.25 563.39 291.60 C 561.64 293.31 559.98 295.11 558.31 296.90 C 552.64 301.47 546.31 305.13 539.67 308.10 C 538.75 308.38 536.91 308.95 535.99 309.24 C 534.37 309.39 532.76 309.53 531.16 309.66 C 531.69 308.14 532.31 306.66 532.71 305.11 C 532.93 304.26 533.36 302.57 533.58 301.72 C 533.59 302.75 533.61 304.79 533.61 305.81 C 537.79 305.09 541.98 303.95 545.50 301.49 C 556.39 294.25 564.51 282.17 565.55 268.97 C 566.19 262.43 563.71 256.24 561.08 250.41 Z"
     id="path234" />
  <path
     fill="#e40b0b"
     d=" M 481.45 264.62 C 482.29 260.70 481.85 256.59 482.68 252.65 C 483.31 262.27 485.37 272.12 490.68 280.32 C 493.79 286.22 497.28 292.01 502.42 296.39 C 502.39 297.70 502.35 299.01 502.32 300.34 C 499.66 298.87 496.84 297.56 494.62 295.43 C 490.28 291.50 487.27 286.34 482.81 282.54 C 481.24 279.62 480.13 276.47 479.27 273.28 C 479.07 270.19 479.97 267.28 481.45 264.62 Z"
     id="path236" />
  <path
     fill="#540607"
     d=" M 574.47 283.63 C 581.53 275.88 581.39 264.74 582.65 254.94 C 582.58 259.98 582.52 265.02 582.86 270.05 C 581.42 278.69 577.62 287.13 571.15 293.16 C 560.43 303.03 546.74 308.68 533.47 314.20 C 531.63 314.79 530.36 316.24 529.36 317.81 C 529.09 316.14 528.80 314.48 528.49 312.82 C 532.23 311.25 536.77 311.28 539.67 308.10 C 546.31 305.13 552.64 301.47 558.31 296.90 C 564.95 294.34 570.52 289.50 574.47 283.63 Z"
     id="path238" />
  <path
     fill="#e95456"
     d=" M 565.46 258.01 C 565.60 257.55 565.87 256.63 566.00 256.17 C 566.96 260.48 567.91 264.84 567.85 269.29 C 567.34 274.38 567.16 279.49 567.28 284.60 C 566.57 286.41 565.84 288.21 565.03 289.99 C 564.62 290.39 563.80 291.20 563.39 291.60 C 563.85 286.25 564.59 280.94 565.63 275.67 C 566.75 269.82 565.87 263.88 565.46 258.01 Z"
     id="path240" />
  <path
     fill="#b51014"
     d=" M 498.12 270.75 C 498.11 266.62 498.77 262.54 499.90 258.58 C 500.22 263.24 500.86 267.88 501.69 272.47 C 501.01 272.49 499.63 272.51 498.95 272.52 C 498.63 271.94 498.36 271.35 498.12 270.75 Z"
     id="path242" />
  <path
     fill="#fd4846"
     d=" M 567.85 269.29 C 568.10 266.50 568.44 263.72 568.87 260.96 C 571.91 265.72 571.92 271.59 570.19 276.82 C 569.42 279.49 568.34 282.04 567.28 284.60 C 567.16 279.49 567.34 274.38 567.85 269.29 Z"
     id="path244" />
  <path
     fill="#93171b"
     d=" M 498.95 272.52 C 499.63 272.51 501.01 272.49 501.69 272.47 C 503.71 273.81 504.80 276.02 505.83 278.13 C 506.47 279.50 507.13 280.87 507.79 282.24 C 507.32 282.26 506.38 282.30 505.91 282.32 C 503.27 279.29 500.72 276.15 498.95 272.52 Z"
     id="path246" />
  <path
     fill="#af090e"
     d=" M 531.18 293.97 C 532.65 287.83 533.35 281.53 535.20 275.48 C 534.98 283.73 532.57 291.69 531.47 299.83 C 531.11 301.70 532.09 303.41 532.71 305.11 C 532.31 306.66 531.69 308.14 531.16 309.66 C 532.76 309.53 534.37 309.39 535.99 309.24 C 533.59 309.99 531.07 310.10 528.59 310.29 L 528.65 309.04 C 529.16 303.97 529.99 298.93 531.18 293.97 Z"
     id="path248" />
  <path
     fill="#a40b0a"
     d=" M 482.81 282.54 C 487.27 286.34 490.28 291.50 494.62 295.43 C 496.84 297.56 499.66 298.87 502.32 300.34 C 506.10 302.55 509.64 305.25 513.86 306.60 C 517.68 307.89 521.54 309.07 525.20 310.77 L 525.88 311.55 C 525.06 312.36 524.29 313.21 523.50 314.04 C 523.03 314.48 522.09 315.36 521.62 315.81 C 521.27 315.10 520.93 314.40 520.60 313.71 C 520.45 312.73 520.26 311.77 520.03 310.82 C 516.38 308.97 512.04 308.93 508.55 306.69 C 506.00 305.06 503.27 303.67 500.19 303.51 C 492.64 298.28 486.65 290.87 482.81 282.54 Z"
     id="path250" />
  <path
     fill="#e63a40"
     d=" M 497.53 289.65 C 501.36 293.40 505.17 297.24 509.82 299.99 C 511.26 302.13 512.54 304.38 513.86 306.60 C 509.64 305.25 506.10 302.55 502.32 300.34 C 502.35 299.01 502.39 297.70 502.42 296.39 C 500.54 294.33 498.91 292.06 497.53 289.65 Z"
     id="path252" />
  <path
     fill="#ff7574"
     d=" M 525.24 304.47 C 525.96 300.50 526.94 296.60 528.02 292.72 C 527.61 296.54 526.63 300.27 526.22 304.09 C 526.54 305.91 527.86 307.39 528.65 309.04 L 528.59 310.29 C 527.65 310.66 526.75 311.08 525.88 311.55 L 525.20 310.77 C 524.53 308.71 523.95 306.63 523.35 304.56 C 523.82 304.53 524.77 304.49 525.24 304.47 Z"
     id="path254" />
  <path
     fill="#e25657"
     d=" M 509.82 299.99 C 514.05 302.18 518.51 304.29 523.35 304.56 C 523.95 306.63 524.53 308.71 525.20 310.77 C 521.54 309.07 517.68 307.89 513.86 306.60 C 512.54 304.38 511.26 302.13 509.82 299.99 Z"
     id="path256" />
  <path
     fill="#6f0201"
     d=" M 500.19 303.51 C 503.27 303.67 506.00 305.06 508.55 306.69 C 512.04 308.93 516.38 308.97 520.03 310.82 C 520.26 311.77 520.45 312.73 520.60 313.71 C 513.37 311.26 506.32 308.10 500.19 303.51 Z"
     id="path258" />
  <path
     fill="#8b0101"
     d=" M 535.99 309.24 C 536.91 308.95 538.75 308.38 539.67 308.10 C 536.77 311.28 532.23 311.25 528.49 312.82 C 528.80 314.48 529.09 316.14 529.36 317.81 C 528.38 321.24 528.36 324.83 528.53 328.36 C 525.25 324.29 526.79 318.92 525.71 314.19 L 525.55 312.86 C 525.03 313.15 524.01 313.74 523.50 314.04 C 524.29 313.21 525.06 312.36 525.88 311.55 C 526.75 311.08 527.65 310.66 528.59 310.29 C 531.07 310.10 533.59 309.99 535.99 309.24 Z"
     id="path260" />
  <path
     fill="#de3c3e"
     d=" M 523.50 314.04 C 524.01 313.74 525.03 313.15 525.55 312.86 L 525.71 314.19 C 525.69 318.74 524.83 323.26 525.20 327.82 C 524.19 328.99 523.19 330.16 522.20 331.34 C 522.21 326.28 524.52 320.94 521.78 316.20 L 521.62 315.81 C 522.09 315.36 523.03 314.48 523.50 314.04 Z"
     id="path262" />
  <path
     fill="#a60a0a"
     d=" M 525.71 314.19 C 526.79 318.92 525.25 324.29 528.53 328.36 C 529.68 330.90 530.77 333.45 531.93 335.99 L 531.73 337.77 C 529.74 335.35 527.81 332.88 525.64 330.61 C 525.49 329.68 525.34 328.74 525.20 327.82 C 524.83 323.26 525.69 318.74 525.71 314.19 Z"
     id="path264" />
  <path
     fill="#d06868"
     d=" M 521.78 316.20 C 524.52 320.94 522.21 326.28 522.20 331.34 C 522.22 333.31 522.41 335.26 522.54 337.23 C 522.55 337.39 522.57 337.72 522.58 337.88 L 522.51 339.39 C 518.53 332.14 522.70 323.91 521.78 316.20 Z"
     id="path266" />
  <path
     fill="#a60a0a"
     d=" M 38.72 324.05 C 44.96 345.98 54.56 367.27 68.66 385.27 C 68.64 385.40 68.60 385.67 68.58 385.80 C 69.36 386.83 70.17 387.86 70.98 388.88 C 75.93 395.20 81.07 401.40 86.77 407.07 C 87.22 407.96 87.67 408.87 88.10 409.79 C 86.84 408.96 85.58 408.11 84.34 407.26 C 82.14 404.93 79.88 402.66 77.92 400.11 C 71.81 392.20 64.92 384.85 59.59 376.36 C 56.67 371.14 53.49 366.06 51.00 360.62 C 45.91 349.47 39.83 338.46 37.91 326.22 L 38.72 324.05 Z"
     id="path268" />
  <path
     fill="#f72d29"
     d=" M 522.20 331.34 C 523.19 330.16 524.19 328.99 525.20 327.82 C 525.34 328.74 525.49 329.68 525.64 330.61 C 525.74 332.30 525.85 334.02 525.58 335.70 C 524.59 336.26 523.57 336.77 522.54 337.23 C 522.41 335.26 522.22 333.31 522.20 331.34 Z"
     id="path270" />
  <path
     fill="#e30a0a"
     d=" M 525.64 330.61 C 527.81 332.88 529.74 335.35 531.73 337.77 L 531.93 335.99 C 533.96 339.16 536.25 342.18 538.63 345.11 C 538.16 346.01 537.69 346.91 537.24 347.82 C 538.53 349.73 539.78 351.66 541.07 353.57 C 539.11 352.75 537.24 351.72 535.79 350.16 C 533.34 347.56 529.90 346.21 527.50 343.58 C 525.80 341.73 524.21 339.79 522.58 337.88 C 522.57 337.72 522.55 337.39 522.54 337.23 C 523.57 336.77 524.59 336.26 525.58 335.70 C 525.85 334.02 525.74 332.30 525.64 330.61 Z"
     id="path272" />
  <path
     fill="#9b0708"
     d=" M 522.51 339.39 L 522.58 337.88 C 524.21 339.79 525.80 341.73 527.50 343.58 C 529.90 346.21 533.34 347.56 535.79 350.16 C 537.24 351.72 539.11 352.75 541.07 353.57 C 544.86 357.85 549.71 361.04 554.37 364.30 C 555.12 365.43 555.76 366.62 556.48 367.79 C 554.87 366.88 553.24 366.03 551.65 365.11 C 544.59 360.32 537.25 355.87 530.96 350.07 C 527.63 346.97 524.32 343.63 522.51 339.39 Z"
     id="path274" />
  <path
     fill="#d31e20"
     d=" M 537.24 347.82 C 537.69 346.91 538.16 346.01 538.63 345.11 C 541.16 348.23 544.04 351.04 546.89 353.87 C 548.06 358.23 552.23 360.52 554.37 364.30 C 549.71 361.04 544.86 357.85 541.07 353.57 C 539.78 351.66 538.53 349.73 537.24 347.82 Z"
     id="path276" />
  <path
     fill="#dd8e8e"
     d=" M 433.52 357.16 C 451.85 354.11 470.49 353.76 489.02 354.66 C 496.07 355.40 503.16 356.79 509.73 359.54 C 505.95 359.28 502.29 358.30 498.62 357.48 C 490.49 356.14 482.22 355.61 473.99 355.43 C 466.97 355.20 460.01 356.34 453.01 356.50 C 446.73 356.65 440.58 358.04 434.36 358.70 L 433.52 357.16 Z"
     id="path278" />
  <path
     fill="#c52e37"
     d=" M 546.89 353.87 C 551.85 358.00 556.80 362.16 561.47 366.63 C 560.30 367.50 559.12 368.36 558.00 369.28 C 557.62 368.91 556.86 368.16 556.48 367.79 C 555.76 366.62 555.12 365.43 554.37 364.30 C 552.23 360.52 548.06 358.23 546.89 353.87 Z"
     id="path280" />
  <path
     fill="#fa6e6e"
     d=" M 453.01 356.50 C 460.01 356.34 466.97 355.20 473.99 355.43 C 482.22 355.61 490.49 356.14 498.62 357.48 C 497.14 358.62 495.62 359.72 494.01 360.67 C 485.73 359.34 477.31 359.44 468.97 358.73 C 461.05 358.82 453.10 359.33 445.24 360.27 C 438.00 360.45 430.89 361.94 423.73 362.87 C 427.23 361.36 430.68 359.71 434.36 358.70 C 440.58 358.04 446.73 356.65 453.01 356.50 Z"
     id="path282" />
  <path
     fill="#e78182"
     d=" M 340.54 390.43 C 368.75 372.93 400.76 362.04 433.52 357.16 L 434.36 358.70 C 430.68 359.71 427.23 361.36 423.73 362.87 C 385.45 369.84 348.93 386.27 318.31 410.28 C 308.54 418.08 299.20 426.45 290.56 435.50 C 285.40 440.53 281.25 446.48 275.91 451.33 C 277.55 447.60 280.09 444.41 282.69 441.31 C 298.83 421.16 318.46 403.82 340.54 390.43 Z"
     id="path284" />
  <path
     fill="#e95153"
     d=" M 498.62 357.48 C 502.29 358.30 505.95 359.28 509.73 359.54 C 511.02 359.92 512.32 360.31 513.62 360.70 C 523.33 364.28 532.63 368.96 542.57 371.88 C 543.46 373.08 544.35 374.28 545.26 375.49 C 544.07 375.40 542.89 375.31 541.72 375.22 C 526.10 369.48 510.58 363.10 494.01 360.67 C 495.62 359.72 497.14 358.62 498.62 357.48 Z"
     id="path286" />
  <path
     fill="#8a0200"
     d=" M 445.24 360.27 C 453.10 359.33 461.05 358.82 468.97 358.73 C 477.31 359.44 485.73 359.34 494.01 360.67 C 510.58 363.10 526.10 369.48 541.72 375.22 C 535.53 376.12 530.33 371.30 524.14 372.47 C 522.50 371.96 520.89 371.39 519.28 370.85 C 520.06 370.82 521.64 370.75 522.43 370.72 C 515.79 367.33 508.41 365.95 501.11 364.86 C 489.26 362.45 477.15 361.01 465.04 361.37 C 458.43 361.30 451.73 361.79 445.24 360.27 Z"
     id="path288" />
  <path
     fill="#5c0405"
     d=" M 423.73 362.87 C 430.89 361.94 438.00 360.45 445.24 360.27 C 451.73 361.79 458.43 361.30 465.04 361.37 C 477.15 361.01 489.26 362.45 501.11 364.86 C 508.41 365.95 515.79 367.33 522.43 370.72 C 521.64 370.75 520.06 370.82 519.28 370.85 C 484.04 361.73 446.58 361.26 411.14 369.64 C 371.42 379.05 334.78 399.45 304.15 426.23 C 296.45 433.16 288.57 439.95 281.89 447.91 C 275.00 454.91 268.96 462.68 262.73 470.25 C 266.97 463.84 271.09 457.33 275.91 451.33 C 281.25 446.48 285.40 440.53 290.56 435.50 C 299.20 426.45 308.54 418.08 318.31 410.28 C 348.93 386.27 385.45 369.84 423.73 362.87 Z"
     id="path290" />
  <path
     fill="#e17c79"
     d=" M 551.65 365.11 C 553.24 366.03 554.87 366.88 556.48 367.79 C 556.86 368.16 557.62 368.91 558.00 369.28 C 556.30 371.16 554.95 373.54 552.55 374.60 C 550.29 375.73 547.70 375.58 545.26 375.49 C 544.35 374.28 543.46 373.08 542.57 371.88 C 545.10 372.30 547.67 372.48 550.23 372.70 C 551.72 371.27 553.04 369.69 554.23 368.01 C 553.37 367.03 552.51 366.06 551.65 365.11 Z"
     id="path292" />
  <path
     fill="#620505"
     d=" M 561.47 366.63 C 561.86 367.04 562.25 367.45 562.66 367.88 C 560.45 372.51 557.18 377.02 551.89 378.26 C 542.23 379.95 533.08 375.43 524.14 372.47 C 530.33 371.30 535.53 376.12 541.72 375.22 C 542.89 375.31 544.07 375.40 545.26 375.49 C 547.70 375.58 550.29 375.73 552.55 374.60 C 554.95 373.54 556.30 371.16 558.00 369.28 C 559.12 368.36 560.30 367.50 561.47 366.63 Z"
     id="path294" />
  <path
     fill="#b50305"
     d=" M 36.40 370.36 C 41.02 378.53 47.42 385.41 53.77 392.23 C 62.03 399.27 68.91 407.94 78.15 413.80 C 85.86 420.89 94.72 426.72 104.25 431.05 C 109.50 434.76 114.98 438.13 120.70 441.07 C 129.29 445.73 137.90 450.40 147.06 453.87 C 151.61 455.81 156.23 457.60 160.72 459.71 C 154.02 459.60 148.23 455.94 142.07 453.81 C 134.12 450.40 125.79 447.84 118.19 443.64 C 112.78 440.72 107.00 438.49 101.79 435.21 C 85.98 425.55 70.76 414.62 58.06 401.04 C 56.38 399.25 54.75 397.26 52.41 396.33 C 46.21 389.68 41.17 382.06 36.28 374.42 C 36.31 373.41 36.37 371.38 36.40 370.36 Z"
     id="path296" />
  <path
     fill="#700c0c"
     d=" M 52.41 396.33 C 54.75 397.26 56.38 399.25 58.06 401.04 C 70.76 414.62 85.98 425.55 101.79 435.21 C 107.00 438.49 112.78 440.72 118.19 443.64 C 125.79 447.84 134.12 450.40 142.07 453.81 C 148.23 455.94 154.02 459.60 160.72 459.71 C 163.87 460.76 167.04 461.76 170.26 462.58 C 180.17 465.74 190.28 468.11 200.46 470.21 C 199.21 470.61 197.97 471.01 196.73 471.42 C 162.80 465.15 129.52 453.98 99.85 436.16 C 82.18 425.36 65.77 412.21 52.41 396.33 Z"
     id="path298" />
  <path
     fill="#f72528"
     d=" M 86.77 407.07 C 89.19 409.29 91.51 411.63 93.93 413.86 C 93.28 413.64 91.99 413.21 91.34 412.99 C 96.86 419.07 103.79 423.60 109.88 429.07 C 114.02 432.89 118.71 436.05 123.54 438.93 C 122.59 439.64 121.64 440.35 120.70 441.07 C 114.98 438.13 109.50 434.76 104.25 431.05 C 101.54 427.68 98.69 424.38 95.17 421.83 C 91.55 419.37 90.10 415.07 87.07 412.07 C 85.68 410.77 84.94 409.02 84.34 407.26 C 85.58 408.11 86.84 408.96 88.10 409.79 C 87.67 408.87 87.22 407.96 86.77 407.07 Z"
     id="path300" />
  <path
     fill="#d45154"
     d=" M 91.34 412.99 C 91.99 413.21 93.28 413.64 93.93 413.86 C 115.51 433.25 140.71 448.60 167.90 458.75 C 168.68 460.02 169.47 461.30 170.26 462.58 C 167.04 461.76 163.87 460.76 160.72 459.71 C 156.23 457.60 151.61 455.81 147.06 453.87 C 145.36 451.21 142.82 449.31 139.98 448.02 C 134.31 445.34 129.02 441.96 123.54 438.93 C 118.71 436.05 114.02 432.89 109.88 429.07 C 103.79 423.60 96.86 419.07 91.34 412.99 Z"
     id="path302" />
  <path
     fill="#f53c41"
     d=" M 123.54 438.93 C 129.02 441.96 134.31 445.34 139.98 448.02 C 142.82 449.31 145.36 451.21 147.06 453.87 C 137.90 450.40 129.29 445.73 120.70 441.07 C 121.64 440.35 122.59 439.64 123.54 438.93 Z"
     id="path304" />
  <path
     fill="#d26e6f"
     d=" M 167.90 458.75 C 178.54 462.55 189.23 466.30 200.26 468.83 C 206.57 470.58 213.08 471.46 219.36 473.31 C 212.96 472.89 206.75 471.28 200.46 470.21 C 190.28 468.11 180.17 465.74 170.26 462.58 C 169.47 461.30 168.68 460.02 167.90 458.75 Z"
     id="path306" />
  <path
     fill="#6c3237"
     d=" M 200.46 470.21 C 206.75 471.28 212.96 472.89 219.36 473.31 C 225.57 474.31 231.80 475.15 238.03 476.02 C 235.07 476.37 232.12 475.93 229.19 475.60 C 218.30 474.93 207.43 473.58 196.73 471.42 C 197.97 471.01 199.21 470.61 200.46 470.21 Z"
     id="path308" />
</svg>
